<?xml version="1.0" encoding="UTF-8"?>
<!-- Generator: Adobe Illustrator 25.2.1, SVG Export Plug-In . SVG Version: 6.00 Build 0)  -->
<svg xmlns="http://www.w3.org/2000/svg" xmlns:xlink="http://www.w3.org/1999/xlink" version="1.1" id="Capa_1" x="0px" y="0px" viewBox="0 0 512 512" style="enable-background:new 0 0 512 512;" xml:space="preserve" width="512" height="512">
<g>
	<g>
		<g>
			<g>
				<g>
					<path style="fill:#FD8A02;" d="M434.93,299.224c7.225,8.07,20.284,26.653,23.68,38.243c1.633,5.57-1.559,11.409-7.129,13.042       c-5.101,1.495-10.426-1.058-12.541-5.776c-4.979-11.072-7.105-33.844-6.866-44.453       C432.107,298.794,433.939,298.125,434.93,299.224z"/>
				</g>
				<g>
					<path style="fill:#FD8A02;" d="M412.996,308.31c1.702,8.453,3.169,26.477,0.825,35.802c-1.127,4.482-5.673,7.201-10.155,6.074       c-4.104-1.032-6.729-4.932-6.277-9.023c1.05-9.609,8.777-26.095,13.221-33.281C411.231,306.876,412.759,307.156,412.996,308.31       z"/>
				</g>
				<g>
					<path style="fill:#FD8A02;" d="M453.567,289.953c4.27,7.492,15.005,22.044,22.898,27.534c3.794,2.639,9.008,1.703,11.647-2.091       c2.416-3.474,1.833-8.139-1.195-10.927c-7.104-6.555-23.76-13.909-31.831-16.407       C453.955,287.713,452.987,288.927,453.567,289.953z"/>
				</g>
			</g>
		</g>
		<g>
			<g>
				<g>
					<path style="fill:#FD8A02;" d="M316.272,88.784c-8.075-7.219-23.115-24.239-27.776-35.381       c-2.24-5.354,0.285-11.511,5.639-13.752c4.903-2.051,10.479-0.105,13.104,4.349c6.176,10.452,10.814,32.847,11.754,43.418       C319.125,88.898,317.379,89.766,316.272,88.784z"/>
				</g>
				<g>
					<path style="fill:#FD8A02;" d="M337.063,77.322c-2.63-8.212-6.085-25.962-4.79-35.489c0.623-4.579,4.839-7.786,9.419-7.164       c4.193,0.57,7.234,4.156,7.239,8.272c0.022,9.666-5.829,26.908-9.449,34.542C338.976,78.551,337.427,78.442,337.063,77.322z"/>
				</g>
				<g>
					<path style="fill:#FD8A02;" d="M298.779,100.065c-5.074-6.972-17.357-20.244-25.81-24.825       c-4.063-2.202-9.142-0.693-11.343,3.37c-2.016,3.72-0.919,8.292,2.399,10.727c7.787,5.727,25.156,11.188,33.455,12.776       C298.641,102.334,299.468,101.02,298.779,100.065z"/>
				</g>
			</g>
		</g>
	</g>
	<g>
		<g>
			<path style="fill:#FFFFFF;" d="M323.5,390.68l-184.686,83.417c-7.127,3.22-15.539,0.056-18.759-7.071L3.321,208.585     c-3.24-7.148-0.057-15.539,7.071-18.759l16.678-7.539l11.555-5.208l156.451-70.67c7.128-3.22,15.52-0.056,18.76,7.071     l102.527,227.023l7.462,16.51l6.745,14.908C333.791,379.048,330.626,387.46,323.5,390.68z"/>
			<path style="opacity:0.18;fill:#000E3F;" d="M323.5,390.68l-184.686,83.417c-7.127,3.22-15.539,0.056-18.759-7.071L3.321,208.585     c-3.24-7.148-3.014-13.743,4.114-16.963l2.891,0.959c10.27,3.407,18.705,10.88,23.325,20.664     c60.321,127.719,48.775,229.79,290.175,143.769l6.745,14.908C333.791,379.048,330.626,387.46,323.5,390.68z"/>
			<path style="fill:#FFCF00;" d="M127.08,300.298c-4.422-9.924-6.456-15.13-18.527-14.225c-12.612,0.934-26.016-4.704-34.15-14.466     c-10.325-12.334-8.495-28.988-0.441-41.991c0-0.02,0.02-0.02,0.019-0.04c5.846-9.373,17.817-15.014,28.913-11.786     c11.761,3.417,17.772,15.944,27.912,21.998c11.255,6.718,20.725-3.217,31.634-5.106c17.035-2.955,27.411,11.266,25.385,25.734     c-0.338,2.616-1.117,5.238-2.32,7.768c-5.993,12.587-23.458,7.8-27.786,20.34c-2.317,6.684-1.982,14.729-8.228,19.41     C141.026,314.278,130.897,308.826,127.08,300.298z"/>
			<path style="opacity:0.5;fill:#FD8A02;" d="M127.08,300.298c-4.422-9.924-6.456-15.13-18.527-14.225     c-12.612,0.934-26.016-4.704-34.15-14.466c-10.325-12.334-8.495-28.988-0.441-41.991c0-0.02,0.02-0.02,0.019-0.04     c1.59,17.078,29.709,35.82,47.685,33.954c3.894-0.065,7.822-0.432,10.942,2.407c3.465,3.154,2.698,8.889,3.072,13.239     c0.664,7.276,5.737,9.34,10.087,5.372c6.466-5.89,7.596-15.164,14.55-20.701c5.964-4.737,14.332-7.326,21.889-5.606     c2.076,0.467,3.915,1.219,5.618,2.175c-0.338,2.616-1.117,5.238-2.32,7.768c-5.993,12.587-23.458,7.8-27.786,20.34     c-2.317,6.684-1.982,14.729-8.228,19.41C141.026,314.278,130.897,308.826,127.08,300.298z"/>
			<path style="opacity:0.75;fill:#FFFFFF;" d="M88.169,231.18l-0.292,0.013c-1.889,0.087-2.702-2.389-1.104-3.434     c12.578-8.171,27.969,0.658,32.477,12.816c0.627,1.688-1.387,3.128-2.784,1.988C104.585,232.869,100.775,230.601,88.169,231.18z"/>
			<path style="fill:#FC09B2;" d="M238.27,405.019c-16.523,5.939-27.878,0.987-43.895,12.581c-4.183,3.027-8.375,6.083-12.656,8.969     c-14.303,9.582-35.518,6.594-44.261-8.958c-4.488-7.979-2.961-15.166-0.944-23.444c3.232-13.244-12.246-11.535-28.385-16.982     c-13.109-4.452-23.688-17.952-24.153-30.84c-0.066-2.026,0.012-3.959,0.234-5.799c2.384-20.208,21.49-27.868,35.34-16.707     c5.091,4.097,8.956,8.973,14.872,9.433c8.088,0.63,11.989-6.923,18.115-10.596c7.522-4.492,17.484-0.519,22.082,6.469     c6.222,9.43,1.783,22.891,0.508,33.109c-1.029,8.151,5.393,14.865,14.756,12.033c11.542-3.482,20.178-13.46,32.2-15.969     c18.902-3.936,32.057,12.087,31.51,26.817C253.277,393.419,248.638,401.306,238.27,405.019z"/>
			<path style="fill:#6280FF;" d="M196.238,225.229c-7.512-0.198-12.54-6.803-17.187-12.561c-7.519-9.283-12.745-7.283-21.865-0.39     c-21.987,16.638-49.796-26.875-20.879-41.484c10.588-5.379,18.13-2.967,20.546-14.453c2.239-10.642,9.354-21.229,19.674-25.44     c11.941-4.873,25.671,2.323,33.174,12.029c8.246,10.667,2.48,26.03-5.577,34.896c-4.267,4.67-4.497,7.64-0.825,12.701     C212.945,203.899,212.88,225.661,196.238,225.229z"/>
			<g style="opacity:0.25;">
				<g>
					<path style="fill:#000E3F;" d="M238.27,405.019c-16.523,5.939-27.878,0.987-43.895,12.581       c-4.183,3.027-8.375,6.083-12.656,8.969c-14.303,9.582-35.518,6.594-44.261-8.958c-4.488-7.979-2.961-15.166-0.944-23.444       c3.232-13.244-12.246-11.535-28.385-16.982c-13.109-4.452-23.688-17.952-24.153-30.84c-0.066-2.026,0.012-3.959,0.234-5.799       c9.238,16.277,42.483,16.586,55.568,25.53c17.284,11.826,15.915,27.699,26.217,38.348       c10.292,10.629,34.199-4.929,53.353-18.841c14.132-10.236,27.966-4.29,34.243-0.447       C253.277,393.419,248.638,401.306,238.27,405.019z"/>
				</g>
				<g>
					<path style="fill:#000E3F;" d="M196.238,225.229c-7.512-0.198-12.54-6.803-17.187-12.561       c-7.519-9.283-12.745-7.283-21.865-0.39c-12.564,9.508-26.223-0.403-31.46-13.095l-0.014-0.014       c-0.249-0.579-0.469-1.158-0.676-1.723c-0.576-1.682-0.939-3.38-1.104-5.081c8.208-13.637,25.636-7.453,42.801-3.011       c19.443,5.036,22.798-7.358,19.842-31.11c-1.335-10.714,6.903-17.793,16.339-22.333c0.646,0.517,1.292,1.09,1.939,1.692       c1.121,1.035,2.229,2.171,3.339,3.391c9.641,10.873,5.321,26.502-4.067,36.833c-4.267,4.67-4.497,7.64-0.825,12.701       C212.945,203.899,212.88,225.661,196.238,225.229z"/>
				</g>
			</g>
			<g style="opacity:0.5;">
				<g>
					<path style="fill:#FFFFFF;" d="M162.922,340.01c-12.689,18.132-38.784,18.927-51.091-3.801       c-0.506-0.935-0.16-2.103,0.775-2.609c1.262-0.684,2.435,0.376,2.222,0.279c4.487,4.083,10.232,8.885,16.115,10.788       c14.845,5.424,30.795-8.088,29.472-7.151C162.044,336.363,164.072,338.36,162.922,340.01z"/>
				</g>
				<g>
					<path style="fill:#FFFFFF;" d="M172.849,156.356c-0.77,1.367-2.743,6.477-2.657,6.273c-0.709,1.663-3.155,1.487-3.594-0.304       c-2.722-11.361,6.771-22.534,17.244-23.799c1.693-0.205,2.673,1.861,1.459,3.047       C181.648,145.145,176.315,149.398,172.849,156.356z"/>
				</g>
			</g>
		</g>
		<g>
			<g>
				<path style="fill:#000E3F;" d="M132.985,477.408c-1.934,0-3.873-0.349-5.736-1.051c-4.062-1.53-7.277-4.543-9.06-8.49      L1.456,209.427c-1.79-3.947-1.934-8.355-0.406-12.409c1.53-4.056,4.548-7.273,8.501-9.058l184.685-83.417      c8.126-3.675,17.761-0.048,21.465,8.09l116.735,258.444c1.783,3.946,1.923,8.353,0.395,12.409      c-1.53,4.061-4.544,7.276-8.49,9.059l0,0l-184.685,83.417C137.527,476.926,135.259,477.408,132.985,477.408z M200.888,107.2      c-1.665,0-3.355,0.345-4.97,1.074L11.236,191.691c-2.956,1.335-5.212,3.739-6.356,6.772c-1.141,3.029-1.033,6.324,0.304,9.277      L121.92,466.185c1.33,2.947,3.735,5.198,6.771,6.342c3.042,1.141,6.336,1.037,9.283-0.295l184.685-83.417      c2.947-1.332,5.199-3.735,6.342-6.771c1.141-3.035,1.037-6.33-0.295-9.28l-14.208-31.418L211.972,114.323      C209.938,109.852,205.51,107.2,200.888,107.2z M323.5,390.68h0.022H323.5z"/>
			</g>
			<g>
				<path style="fill:#000E3F;" d="M163.355,434.083c-2.696,0-5.392-0.306-8.012-0.933c-8.563-2.043-15.547-7.206-19.668-14.536      c-5.039-8.958-3.062-17.079-1.148-24.931c0.595-2.438,0.478-4.275-0.36-5.616c-1.825-2.933-7.45-4.175-13.966-5.615      c-3.884-0.857-8.285-1.83-12.727-3.329c-13.832-4.698-25.051-19.063-25.544-32.704c-0.069-2.113,0.013-4.168,0.246-6.116      c1.228-10.399,6.926-18.636,15.243-22.03c7.688-3.135,16.44-1.649,23.415,3.973c1.199,0.965,2.332,1.972,3.44,2.957      c3.455,3.073,6.44,5.728,10.308,6.029c4.495,0.359,7.53-2.404,11.003-5.593c1.819-1.671,3.7-3.399,5.898-4.718      c8.669-5.171,19.839-0.508,24.845,7.098c5.383,8.162,3.524,18.656,1.885,27.914c-0.413,2.323-0.802,4.518-1.059,6.575      c-0.426,3.385,0.675,6.55,2.947,8.469c2.321,1.961,5.583,2.439,9.187,1.351c5.092-1.536,9.575-4.395,14.323-7.423      c5.529-3.525,11.245-7.17,18.052-8.589c8.671-1.806,17.032,0.23,23.546,5.73c6.751,5.701,10.746,14.578,10.428,23.164      c-0.384,10.157-6.462,18.078-16.677,21.736c-6.689,2.403-12.476,3.073-18.07,3.72c-8.23,0.95-16,1.85-25.315,8.592l-1.099,0.797      c-3.775,2.734-7.679,5.558-11.612,8.21C177.185,432.071,170.266,434.083,163.355,434.083z M105.636,320.757      c-2.27,0-4.524,0.43-6.671,1.306c-6.917,2.824-11.674,9.822-12.724,18.723c-0.209,1.745-0.282,3.592-0.22,5.49      c0.438,12.054,10.437,24.782,22.766,28.97c4.228,1.427,8.514,2.373,12.298,3.209c7.721,1.706,13.821,3.052,16.557,7.446      c1.448,2.325,1.73,5.188,0.86,8.752c-2.119,8.698-3.211,14.927,0.739,21.953c3.557,6.327,9.613,10.788,17.052,12.565      c8.247,1.97,17.33,0.36,24.287-4.304c3.87-2.609,7.748-5.414,11.494-8.128l1.102-0.797c10.18-7.37,18.467-8.327,27.243-9.342      c5.365-0.62,10.912-1.261,17.157-3.506c0.002,0,0.002-0.002,0.002-0.002c8.561-3.064,13.65-9.638,13.968-18.034      c0.273-7.356-3.167-14.976-8.978-19.883c-5.532-4.672-12.656-6.394-20.07-4.852c-6.072,1.267-11.228,4.555-16.686,8.034      c-4.772,3.044-9.709,6.191-15.34,7.89c-4.97,1.505-9.593,0.745-13.011-2.142c-3.335-2.817-4.968-7.342-4.366-12.107      c0.269-2.159,0.666-4.402,1.088-6.778c1.506-8.505,3.213-18.145-1.272-24.948c-3.968-6.028-12.682-9.804-19.324-5.838      c-1.841,1.104-3.489,2.617-5.232,4.22c-3.649,3.351-7.75,7.139-14.092,6.66c-5.241-0.409-9.038-3.786-12.709-7.053      c-1.059-0.942-2.141-1.904-3.287-2.827C114.447,322.355,110.013,320.757,105.636,320.757z"/>
			</g>
			<g>
				<path style="fill:#000E3F;" d="M141.599,312.749c-1.259,0-2.536-0.165-3.82-0.497c-5.296-1.371-10.111-5.632-12.567-11.118      c0-0.001-0.002-0.002-0.002-0.003l-0.289-0.651c-4.135-9.296-5.845-13.144-16.215-12.367      c-13.315,0.987-27.367-4.982-35.875-15.196c-11.88-14.191-8.139-32.172-0.66-44.299c0.024-0.042,0.047-0.084,0.073-0.126      c6.651-10.668,19.788-15.998,31.22-12.669c7.388,2.147,12.571,7.531,17.583,12.739c3.507,3.645,6.82,7.087,10.806,9.467      c6.611,3.946,12.465,1.387,19.249-1.581c3.5-1.531,7.117-3.114,10.988-3.784c7.968-1.385,15.285,0.681,20.588,5.814      c5.672,5.491,8.352,13.797,7.173,22.222c-0.364,2.82-1.206,5.641-2.496,8.362c-3.331,6.995-9.796,9.215-15.496,11.173      c-5.549,1.906-10.342,3.553-12.207,8.955c-0.626,1.809-1.048,3.726-1.494,5.757c-1.17,5.324-2.378,10.831-7.439,14.624      C147.908,311.677,144.808,312.749,141.599,312.749z M128.95,299.465c1.959,4.376,5.736,7.758,9.857,8.825      c3.296,0.85,6.571,0.164,9.455-1.994c3.844-2.881,4.843-7.421,5.898-12.227c0.453-2.056,0.919-4.183,1.623-6.216      c2.516-7.287,8.731-9.423,14.745-11.489c5.419-1.862,10.537-3.62,13.129-9.06c1.106-2.33,1.825-4.736,2.136-7.151      c1.002-7.156-1.228-14.151-5.962-18.734c-4.337-4.198-10.382-5.872-17.044-4.722c-3.38,0.586-6.768,2.067-10.044,3.501      c-7.164,3.133-14.567,6.372-22.986,1.347c-4.459-2.661-8.119-6.465-11.659-10.143c-4.854-5.043-9.438-9.805-15.775-11.647      c-9.68-2.812-20.836,1.736-26.557,10.826c-0.02,0.039-0.042,0.076-0.067,0.114c-6.757,10.913-10.237,27.046,0.273,39.599      c7.692,9.237,20.434,14.627,32.428,13.738c13.213-0.99,16.031,5.284,20.259,14.784L128.95,299.465z"/>
			</g>
			<g>
				<path style="fill:#000E3F;" d="M196.705,227.282c-0.173,0-0.344-0.002-0.52-0.007l0,0c-8.174-0.215-13.499-6.829-18.196-12.663      l-0.531-0.659c-6.298-7.778-9.911-6.942-19.038-0.043c-5.123,3.877-10.863,5.102-16.608,3.54      c-7.435-2.025-14.288-8.657-17.914-17.331c-0.024-0.047-0.047-0.094-0.069-0.142c-0.264-0.614-0.497-1.228-0.717-1.828      c-0.631-1.849-1.037-3.715-1.217-5.588c-0.995-9.685,4.299-18.951,13.486-23.593c3.398-1.726,6.449-2.67,9.138-3.503      c5.74-1.778,8.903-2.758,10.33-9.546c2.669-12.66,11.621-23.686,22.273-27.436c6.358-2.239,16.226-3.047,27.088,5.845      c0.666,0.532,1.352,1.14,2.036,1.778c1.115,1.029,2.247,2.18,3.457,3.512c10.83,12.214,5.481,29.077-4.066,39.585      c-3.64,3.983-3.766,5.874-0.682,10.123c6.866,9.52,8.891,22.66,4.714,30.568C207.149,224.672,202.556,227.282,196.705,227.282z       M196.292,223.183c4.517,0.109,7.872-1.631,9.76-5.201c3.444-6.52,1.506-18.053-4.41-26.257      c-4.246-5.848-3.993-9.847,0.973-15.278c8.352-9.195,13.184-23.789,4.044-34.096c-1.11-1.225-2.161-2.291-3.193-3.243      c-0.615-0.572-1.221-1.113-1.827-1.598c-7.45-6.096-15.44-7.878-23.155-5.166c-9.353,3.294-17.241,13.107-19.626,24.418      c-1.923,9.143-7.115,10.751-13.126,12.612c-2.534,0.785-5.407,1.674-8.498,3.244c-7.781,3.933-12.096,11.418-11.263,19.537      c0.151,1.568,0.488,3.121,1.004,4.629c0.164,0.448,0.351,0.941,0.56,1.437c0.031,0.059,0.062,0.12,0.087,0.181      c3.089,7.487,9.083,13.413,15.272,15.098c4.535,1.236,8.931,0.275,13.062-2.855c8.472-6.398,15.665-10.407,24.689,0.734      l0.538,0.665C185.519,217.439,190.012,223.018,196.292,223.183L196.292,223.183z"/>
			</g>
		</g>
	</g>
	<g>
		<g>
			<path style="fill:#6280FF;" d="M456.471,253.521c4.277-2.384,8.64-4.628,12.813-7.182c22.854-13.99,45.968-34.501,39.48-60.484     c-3.515-14.078-20.392-27.327-49.434-22.281c-22.577,3.923-46.548,16.868-65.82,29.114     c-36.644,23.284-82.878,65.402-88.28,71.715c-2.395,2.799,5.857,1.197,12.008,19.57c0.704,2.103,0.938,4.254,1.145,6.436     c0.397,4.194-0.409,4.031,4.281,3.273c35.405-5.715,93.822-20.779,127.111-37.167C451.956,255.441,454.316,254.7,456.471,253.521     z"/>
			<path style="fill:#322BBF;" d="M339.933,235.438c-1.229-1.131-1.653-1.157-2.9-0.062c-4.58,4.023-26.971,23.584-31.784,29.001     c-2.549,2.869,5.663,0.879,11.974,19.549c2.38,7.042-0.101,10.577,3.044,10.089c12.654-1.964,28.894-5.442,41.405-8.363     c2.554-0.596,2.651-0.843,2.499-2.246C362.262,265.803,353.696,248.102,339.933,235.438z"/>
			<path style="fill:#FFCF00;" d="M306.181,268.418c-14.639-14.303-37.192-6.145-52.041,3.642c-3.489,2.3-6.826,4.683-10.03,7.396     c-1.562,1.321-4.753,4.652-5.735,6.454c-0.949,1.74-0.671,2.857,0.981,4.024c2.3,1.624,6.077,1.796,8.892,1.741     c4.837-0.095,6.376-0.677,1.013,5.621c-8.114,9.529-22.949,17.128-37.084,15.793c-2.001-0.189-4.021-0.253-6.032-0.255     c-5.007-0.005,0.547,12.399,3.508,16.432c4.772,6.499,9.698,11.563,21.117,15.666c15.91,5.718,34.027-3.644,43.452-15.089     c0.416-0.505,0.681-1.311,1.576-1.184c0.501,0.071,0.49,0.929-0.135,2.093c-5.875,10.943-12.423,18.323-17.272,24.389     c-0.933,1.167-0.084,3.232,1.567,3.374c3.173,0.274,5.305-0.014,7.546-0.596C309.091,347.14,332.239,293.878,306.181,268.418z"/>
			<g>
				<g>
					<path style="fill:#FD8A02;" d="M303.101,285.874c1.371-0.432,3.395-1.993,2.687-3.696c-1.976-4.754-12.371,0.517-14.963,1.845       c-4.951,2.535-9.757,5.637-13.611,9.687c-5.242,5.51-7.505,12.664-4.526,11.421       C276.289,303.628,283.346,292.105,303.101,285.874z"/>
				</g>
				<g>
					<path style="fill:#FD8A02;" d="M274.065,277.721c4.297-0.965,7.765-3.019,13.479-3.126c3.827-0.072,7.875,0.848,11.672,0.356       c4.064-0.527-0.014-4.052-1.651-4.936c-7.659-4.139-22.62,0.243-25.197,5.38C271.727,276.671,272.678,278.032,274.065,277.721z       "/>
				</g>
				<g>
					<path style="fill:#FD8A02;" d="M309.64,291.841c-2.81-1.543-3.359,3.359-12.506,13.049c-0.662,0.702-1.312,1.409-1.706,2.297       c-0.636,1.434,0.727,2.33,2.023,2.096C302.086,308.442,313.803,294.128,309.64,291.841z"/>
				</g>
			</g>
			<path style="fill:#FC09B2;" d="M300.251,336.762c0,0,0.008,0.015-0.007,0.022c-7.947,8.927-18.249,16.244-29.954,20.323     c-0.618,0.221-1.378,0.457-2.22,0.679c-0.186,0.039-0.365,0.092-0.552,0.131c-2.362,0.471-4.734,0.703-7.092,0.667     c-0.075,0.001-0.135-0.006-0.194-0.013c-0.59-0.13-1.092-0.344-1.467-0.639c-0.135-0.118-0.256-0.245-0.361-0.378     c-0.105-0.171-0.196-0.35-0.272-0.536c-0.03-0.097-0.061-0.194-0.069-0.283c-0.038-0.112-0.053-0.216-0.062-0.343     c0.006-0.171,0.02-0.329,0.049-0.493c-0.008-0.015,0.015-0.045,0.014-0.082c0.058-0.254,0.175-0.501,0.361-0.727     c1.117-1.373,19.77-24.225,17.524-26.321c-0.691-0.659-1.175,0.598-4.628,4.188c-10.175,10.584-26.795,17.145-41.109,11.786     c-7.512-2.808-14.123-6.897-19.084-13.379c-4.917-6.392-6.901-12.909-6.946-16.163c-0.042-1.85,0.469-2.391,2.29-2.381     c2.007,0.009,4.023,0.107,6.025,0.287c24.284,2.142,43.768-21.357,39.364-21.439c-3.605-0.058-10.996,0.611-13.511-2.678     c-0.565-0.743-0.817-1.569-0.3-2.431c5.571-9.441,18.894-15.711,21.611-17.878c0.765-0.595,1.608-0.668,2.454-0.106     c8.449,5.57,12.026,14.777,8.984,25.142c-1.521,5.809-5.842,11.19-8.531,16.506c-2.754,5.444,0.26,7.618,3.242,5.971     c2.268-1.247,4.453-2.695,6.562-4.179c3.796-2.698,11.237-4.815,16.497-2.866c3.718,1.386,6.773,3.969,8.958,6.977     C302.698,322.783,302.849,332.063,300.251,336.762z"/>
			<g style="opacity:0.25;">
				<g>
					<path style="fill:#000E3F;" d="M300.251,336.762c-18.594,20.921-44.34,25.951-42.187,19.055       c0.963-3.298,12.814-1.162,25.989-15.125c6.773-7.188,11.977-15.544,13.775-24.564       C302.698,322.783,302.849,332.063,300.251,336.762z"/>
				</g>
				<g>
					<path style="fill:#000E3F;" d="M331.541,291.514c0.925,0.733,4.461-0.377,5.446-0.542       c20.185-3.394,65.306-14.917,96.547-27.331c17.409-6.917,35.684-15.693,50.449-27.202c11.906-9.281,22.975-21.575,25.474-36.98       c3.746-23.092-16.9-36.971-37.841-37.031c-3.54-0.01,7.448,5.135,8.213,5.871c17.169,16.54,10.125,43.423-8.479,58.187       c-28.105,22.304-89.74,37.619-117.157,51.431C338.157,285.994,332.982,292.66,331.541,291.514z"/>
				</g>
			</g>
			<path style="opacity:0.5;fill:#FD8A02;" d="M300.251,336.762c1.512-2.734,2.568-8.906,0.48-15.071     c-0.647-1.899-1.615-3.803-2.903-5.563c0.888-4.514,0.938-9.201-0.117-14c-4.165-18.906-18.969-20.589-14.384-39.994     c0.218-0.934,0.819-1.521,1.856-1.543c7.642-0.104,14.055,1.315,20.423,7.288C324.736,285.766,318.976,315.746,300.251,336.762z"/>
			<g style="opacity:0.5;">
				<g>
					<path style="fill:#FFFFFF;" d="M378.794,213.113c-9.361,6.233-49.781,32.562-56.076,44.492       c-1.166,2.209,0.698,3.46,2.292,2.644c5.074-2.596,2.205-0.872,19.477-12.823c45.579-31.539,52.727-34.381,54.022-39.964       c0.55-2.373-2.152-2.964-4.536-2.518C389.932,205.701,381.606,211.24,378.794,213.113z"/>
				</g>
				<g>
					<path style="fill:#FFFFFF;" d="M263.452,330.2c1.644-1.562,2.773-3.73,0.094-5.165c-2.081-1.115-5.35,1.391-7.083,2.298       c-9.429,4.937-22.424,5.444-34.683-1.634c-2.843-1.641-5.188-3.333-6.064-2.141c-1.858,2.528,3.71,7.264,5.218,8.475       C232.908,341.648,252.281,340.817,263.452,330.2z"/>
				</g>
			</g>
			<g>
				<g>
					<path style="fill:#FF8EDE;" d="M389.882,248.634c1.983-7.39,11.414-12.479,18.725-12.089       c7.238,0.387,10.552,7.744,3.283,14.554C401.933,260.429,387.31,258.22,389.882,248.634z"/>
				</g>
				<g>
					<path style="fill:#FF8EDE;" d="M470.856,207.461c-7.139-2.751-16.808,1.871-20.8,8.009c-3.952,6.076,0.041,13.089,9.826,11.227       C473.286,224.147,480.117,211.03,470.856,207.461z"/>
				</g>
			</g>
			<path style="fill:#FFFFFF;" d="M434.208,210.299c3.019-0.728,5.184,0.439,6.402,2.691c6.538,12.082-9.594,25.477-21.183,20.865     c-4.148-1.651-10.624-7.412-6.631-12.199C414.902,219.132,424.368,212.672,434.208,210.299z"/>
		</g>
		<g>
			<g>
				<g>
					<path style="fill:#000E3F;" d="M391.41,222.802c2.864-2.396,7.476-2.715,10.796,0.21c5.842,5.147,0.532,14.133-6.966,12.891       C389.208,234.903,386.513,226.9,391.41,222.802z"/>
				</g>
			</g>
			<g>
				<g>
					<path style="fill:#000E3F;" d="M449.061,193.488c-3.623,0.902-6.599,4.442-6.191,8.847c0.717,7.752,11.107,8.756,14.52,1.966       C460.136,198.838,455.257,191.945,449.061,193.488z"/>
				</g>
			</g>
			<g>
				<path style="fill:#000E3F;" d="M509.488,181.592c-3.421-8.101-10.073-14.316-19.236-17.975      c-10.108-4.037-22.657-4.328-37.279-0.857c-9.575,2.272-19.689,5.992-30.918,11.372c-9.133,4.375-18.315,9.514-28.073,15.712      c-21.353,13.564-45.426,32.085-67.786,52.149c-9.308,8.353-14.82,13.53-18.111,16.623c-4.938,4.638-4.953,4.634-5.64,4.164      c-0.076-0.051-0.159-0.107-0.252-0.165c-11.408-7.088-25.766-3.622-35.797,0.531c-12.661,5.243-23.291,13.549-28.211,19.455      c-2.919,3.501-3.277,6.256-1.063,8.185c3.157,2.751,6.413,2.87,9.572,2.984c0.727,0.027,1.476,0.052,2.217,0.114      c0.104,0.008,0.102,0.027,0.105,0.081c0.041,1.913-13.532,14.888-29.415,16.904c-3.132,0.397-5.615,0.243-8.489,0.066      c-1.639-0.101-3.332-0.206-5.373-0.231c-2.005-0.025-3.285,1.252-3.608,3.595c-0.607,4.411,2.216,11.515,7.023,17.675      c6.038,7.738,14.548,13.384,23.958,15.899c9.015,2.408,20.071,0.233,30.303-5.976c1.359-0.824,2.531-1.72,3.473-2.439      c0.672-0.514,1.417-1.082,1.795-1.258c-0.944,1.626-6.745,9.635-10.195,13.358c-2.115,2.282-2.996,4.518-2.485,6.297      c0.371,1.29,1.432,2.232,2.985,2.65c0.702,0.189,1.472,0.307,2.304,0.359c5.674,0.352,14.187-2.427,22.605-7.494      c11.786-7.094,21.859-17.707,28.361-29.883c4.993-9.344,6.471-17.134,7.156-25.957c0.012-0.158,0.013-0.295,0.012-0.417      c0.001-0.696,0.001-0.696,5.209-1.632c2.021-0.363,4.791-0.861,8.598-1.592c26.274-5.046,64.893-13.94,99.669-27.658      c41.616-16.417,67.179-35.543,75.982-56.85C512.819,199.86,513.034,189.991,509.488,181.592z M306.384,265.391      c-0.082-0.701,0.531-1.192,1.181-1.711c0.203-0.162,0.4-0.321,0.574-0.484c0.489-0.459,1.108-1.044,1.848-1.742      c6.915-6.537,25.282-23.901,45.467-39.834c36.446-28.775,84.6-60.023,119.672-57.849c5.163,0.32,10.048,1.365,14.563,3.249      c9.99,4.166,16.286,11.39,18.203,20.888c2.482,12.293-2.949,26.661-14.533,38.438c-26.68,27.126-82.143,49.035-164.845,65.118      c-2.281,0.444-4.541,0.839-6.716,1.177c-1.075,0.167-1.692,0.248-1.919,0.061c-0.224-0.186-0.257-0.771-0.294-1.79      c-0.251-6.964-3.867-17.379-11.21-23.793c-0.249-0.217-0.55-0.4-0.842-0.577C306.971,266.202,306.443,265.882,306.384,265.391z       M261.824,352.788c2.921-3.558,8.358-10.182,15.093-21.794c0.795-1.375,0.426-2.742-0.352-3.382      c-0.264-0.216-0.558-0.334-0.85-0.352c-0.342-0.021-0.681,0.094-0.969,0.345c-0.389,0.34-0.913,0.909-1.575,1.628      c-3.158,3.429-9.732,10.564-21.251,14.405c-10.644,3.548-18.158,1.416-24.103-1.138c-10.495-4.509-21.589-15.112-22.489-26.653      c-0.061-0.786,0.016-1.225,0.257-1.467c0.516-0.517,2.079-0.398,4.886-0.191c0.747,0.056,1.586,0.118,2.533,0.18      c0.031,0.002,0.063,0.004,0.096,0.006c14.675,0.91,30.362-6.951,39.989-20.045c0.973-1.324,1.273-2.241,0.943-2.884      c-0.533-1.047-2.583-1.029-5.177-1.007c-2.796,0.024-6.28,0.051-8.593-1.32c-1.496-0.888-1.561-1.106-0.776-2.58      c3.424-6.417,19.887-18.924,36.9-23.149c10.128-2.512,18.8-1.596,25.086,2.649c12.847,8.673,15.094,21.569,14.718,30.861      c-0.841,20.689-15.021,42.791-34.486,53.749c-5.369,3.023-14.351,8.094-21.665,6.594c-0.537-0.108-0.831-0.254-0.898-0.443      C258.957,356.279,260.036,354.964,261.824,352.788z"/>
			</g>
		</g>
	</g>
	<g>
		<g>
			<g>
				<path style="fill:#FFFFFF;" d="M318.021,209.755c1.648,0.865,3.411,1.956,4.63,3.272c-3.131,4.97-6.06,10.521-9.398,15.009      c-8.518-5.274-16.982-9.903-25.098-15.587c3.231-5.874,8.971-15.477,9.191-15.341c1.887,0.812,3.491,2.16,5.218,3.228      l0.038,0.023c-1.237,3.553-3.811,6.483-5.518,9.895l-0.069,0.112l0.013,0.058c1.457,0.848,2.794,2.134,4.321,2.625l0.058-0.013      c1.021-1.404,1.936-2.969,2.909-4.45l0.035,0.021c1.812,0.767,3.329,2.009,5.152,3.087c-0.528,1.757-2.436,3.932-2.349,4.693      c1.272,1.145,3.349,2.227,4.592,2.842l0.058-0.013c2.001-3.23,4.184-6.098,6.14-9.509L318.021,209.755z"/>
				<path style="fill:#FFFFFF;" d="M331.234,203.7c-0.322,0.355-0.89,1.236-1.708,2.128c-0.842,0.927-1.836,1.949-2.669,2.417      c-8.638-4.373-17.052-9.824-24.973-15.941l-0.033-0.028c-0.138-1.004,3.045-4.299,3.815-4.821      c1.947,1.192,8.072,7.361,16.506,11.956c-5.41-7.913-9.642-12.242-12.374-16.427c-0.033-0.03-0.036-0.09-0.005-0.123      c1.628-1.144,2.883-3.098,4.477-4.331C320.524,186.863,325.694,194.909,331.234,203.7z"/>
				<path style="fill:#FFFFFF;" d="M347.307,181.496c1.295,1.341,2.627,2.931,3.371,4.561c-4.534,3.737-9.056,8.09-13.635,11.302      c-6.433-7.682-13.013-14.735-18.933-22.681c4.91-4.561,13.375-11.878,13.542-11.681c1.534,1.363,2.634,3.147,3.937,4.703      l0.029,0.034c-2.287,2.988-5.649,4.958-8.343,7.665l-0.1,0.08l-0.005,0.063c1.113,1.262,1.981,2.906,3.278,3.845l0.058,0.007      c1.412-1.009,2.773-2.207,4.159-3.312l0.027,0.035c1.481,1.295,2.532,2.954,3.922,4.548c-1.053,1.5-3.544,2.968-3.702,3.72      c0.85,1.486,2.478,3.164,3.466,4.139l0.062,0.007c2.913-2.441,5.884-4.479,8.814-7.099L347.307,181.496z"/>
				<path style="fill:#FFFFFF;" d="M369.934,173.295c-1.701,1.106-3.702,2.711-5.969,3.977l-0.038,0.024      c-2.376-1.6-7.23-4.633-10.946-5.829l-0.142-0.062c1.119,2.363,4.612,6.95,5.922,8.727c-1.184,1.749-5.649,4.079-6.051,4.495      c0.289-0.189-14.763-22.984-16.697-25.18c2.458-2.163,5.427-4.811,9.202-6.693c5.918-3.429,13.688,0.444,13.948,7.435      c0.222,2.329-0.44,4.563-2.667,6.216l-0.144,0.092l-0.038,0.025l0.025,0.037c4.361,2.269,9.52,3.712,13.559,6.76      L369.934,173.295z M347.674,165.432l0.038-0.025c1.193-0.62,2.616-1.443,3.66-2.376c1.59-1.601-0.147-4.592-2.172-4.774      c-1.686-0.295-3.347,1.037-4.601,2.834C345.506,162.25,346.788,164.461,347.674,165.432z"/>
				<path style="fill:#FFFFFF;" d="M375.914,136.883c1.774,10.663,0.595,21.791,2.065,32.416c-0.327,0.119-0.637,0.272-0.986,0.448      c-1.079,0.542-2.374,1.337-3.569,1.938c-0.311,0.154-0.619,0.308-0.946,0.425l-0.08,0.04c-0.742-4.849-1.195-10.469-1.65-15.899      l-0.038-0.075c-3.389-3.955-8.319-7.039-11.552-10.878c1.039-0.524,2.083-1.337,3.202-1.899c0.62-0.308,1.255-0.58,1.972-0.602      c1.645,2.025,5.321,5.497,7.217,6.964c0.111-2.379-0.959-7.398-1.081-9.948c0.833-0.66,2.569-1.628,3.92-2.31      c0.619-0.306,1.177-0.541,1.505-0.657L375.914,136.883z"/>
				<path style="fill:#FFFFFF;" d="M400.048,137.89c0.602,0.745,0.959,1.578,1.317,2.413c0.835,2.592,1.848,5.165,2.283,7.817      c0.016,0.039-0.027,0.053-0.011,0.094c0.104,3.604-0.815,7.176-1.925,10.498c-3.513,1.454-7.193,2.831-10.59,4.105l-0.027,0.056      c-4.368-8.093-7.319-18.196-11.037-27.501c0.025-0.058,0.035-0.152,0.062-0.21c2.787-1.919,6.526-2.767,9.595-4.054      c1.905-0.205,4.119,0.533,5.678,1.747C397.25,134.237,398.76,135.929,400.048,137.89z M396.251,143.511      c-0.944-1.539-2.19-3.379-4.253-3.342c-0.973,0.224-2.121,0.609-3.016,1.175l-0.082,0.03l-0.04,0.017l0.06,0.16      c1.292,2.836,2.44,6.88,4.004,10.444c0.806,0.3,1.914-0.301,2.842-0.787c0.298-0.063,0.4-0.286,0.637-0.516      c0.404-0.517,0.629-1.155,0.768-1.761C397.574,147.166,397.436,145.323,396.251,143.511z"/>
				<path style="fill:#FFFFFF;" d="M424.642,152.438l0.011,0.042c-1.59,0.759-3.757,1.17-5.656,1.247l-0.04,0.01      c-1.121-1.631-2.523-4.888-3.689-6.333c-1.477,0.151-1.35,0.297-2.607,0.613c-0.313,1.949,0.418,5.374-0.08,7.46      c-0.044,0.01-0.076,0.064-0.116,0.072c-0.433,0.242-2.074,0.433-5.878,1.437c-0.04,0.01-0.04,0.01-0.093-0.025      c0.051-1.212-1.599-16.433-0.953-30.854c0.762-0.323,1.497-0.241,5.099-1.503c1.053,2.049,5.792,11.324,7.168,13.963      L424.642,152.438z M411.122,143.148c0.973-0.201,2.052-0.518,3.1-0.78C408.906,128.335,410.134,134.265,411.122,143.148z"/>
				<path style="fill:#FFFFFF;" d="M441.603,120.845c-2.274,10.571-7.472,20.487-10.019,30.909c-0.346-0.014-0.691,0.015-1.079,0.05      c-1.204,0.107-2.7,0.369-4.035,0.487c-0.347,0.029-0.691,0.062-1.037,0.047l-0.084,0.009c1.095-4.781,2.743-10.176,4.319-15.391      l-0.007-0.089c-1.694-4.924-5.148-9.609-6.74-14.368c1.164-0.104,2.43-0.476,3.68-0.586c0.688-0.061,1.381-0.08,2.054,0.164      c0.784,2.492,2.924,7.074,4.146,9.132c0.979-2.168,1.836-7.231,2.665-9.647c1.01-0.307,2.985-0.569,4.49-0.7      c0.689-0.064,1.297-0.074,1.643-0.06L441.603,120.845z"/>
			</g>
		</g>
		<g>
			<g>
				<path style="fill:#FFFFFF;" d="M286.812,152.245c0.104,0.332,5.771,6.106,8.878,8.542c1.35,1.02,3.089,1.82,4.588,0.914      c0.951-0.826,1.459-2.065,0.991-3.273c-0.535-1.388-1.905-2.139-2.74-3.333c1.279-1.051,2.676-3.175,4.146-4.052      c5.685,2.655,7.646,10.048,3.429,14.745c-2.396,3.381-7.039,6.198-10.899,3.239c-3.176-2.676-6.46-5.687-13.186-12.159      c-0.817-0.583-1.399-1.48-1.794-2.322c-0.748-1.412-1.133-2.836-1.119-4.307c0.095-0.794,0.377-1.54,0.777-2.288      c3.509-7.546,14.423-8.582,18.374-1.102c-1.102,1.871-2.652,3.144-4.437,4.489c-1.91-1.311-4.059-4.268-6.267-1.715      c-0.407,0.624-0.993,1.377-0.971,2.05C286.588,151.855,286.75,152.125,286.812,152.245z"/>
				<path style="fill:#FFFFFF;" d="M330.315,143.747c-1.592,1.261-3.429,3.046-5.569,4.519l-0.033,0.028      c-2.516-1.368-7.628-3.929-11.438-4.772l-0.147-0.05c1.339,2.246,5.243,6.484,6.713,8.132c-1.015,1.85-5.236,4.585-5.598,5.036      c0.271-0.213-16.844-21.48-18.978-23.481c2.243-2.383,4.947-5.296,8.527-7.526c5.565-3.965,13.659-0.842,14.574,6.09      c0.442,2.296-0.009,4.579-2.069,6.432l-0.133,0.107l-0.033,0.027l0.027,0.033c4.55,1.852,9.82,2.799,14.121,5.452      L330.315,143.747z M307.427,138.015l0.033-0.027c1.13-0.731,2.471-1.681,3.422-2.709c1.43-1.741-0.577-4.554-2.607-4.544      c-1.707-0.138-3.233,1.346-4.312,3.248C304.973,135.055,306.454,137.134,307.427,138.015z"/>
				<path style="fill:#FFFFFF;" d="M343.526,128.741c1.102,1.502,2.21,3.255,2.727,4.969c-4.99,3.098-10.055,6.808-15.02,9.38      c-5.347-8.476-10.926-16.344-15.729-25.007c5.476-3.867,14.843-9.98,14.983-9.762c1.339,1.555,2.19,3.471,3.271,5.185      l0.024,0.038c-2.665,2.651-6.264,4.157-9.291,6.477l-0.111,0.069l-0.013,0.058c0.935,1.404,1.575,3.144,2.734,4.251l0.06,0.013      c1.53-0.812,3.042-1.818,4.561-2.724l0.022,0.035c1.292,1.483,2.112,3.265,3.28,5.033c-1.246,1.346-3.91,2.465-4.168,3.189      c0.644,1.585,2.034,3.466,2.882,4.566l0.058,0.013c3.216-2.027,6.431-3.648,9.682-5.856L343.526,128.741z"/>
				<path style="fill:#FFFFFF;" d="M364.435,124.633l0.022,0.038c-1.392,1.079-3.424,1.945-5.258,2.425l-0.038,0.018      c-1.448-1.353-3.511-4.235-4.956-5.396c-1.41,0.462-1.257,0.58-2.418,1.157c0.116,1.97,1.559,5.161,1.517,7.306      c-0.04,0.018-0.06,0.076-0.098,0.093c-0.366,0.329-1.934,0.866-5.432,2.658c-0.04,0.018-0.04,0.018-0.098,0      c-0.209-1.199-5.074-15.714-7.526-29.937c0.677-0.48,1.412-0.559,4.659-2.561c1.466,1.779,8.081,9.825,9.989,12.109      L364.435,124.633z M349.244,118.447c0.908-0.404,1.894-0.946,2.862-1.426C343.914,104.452,346.379,109.978,349.244,118.447z"/>
				<path style="fill:#FFFFFF;" d="M370.127,97.427c-1.084,0.199-2.416,0.823-4.897,1.949l-0.082,0.031l-0.038,0.014      c0.011,0.041-0.009,0.099,0.007,0.137c0.144,0.828,1.35,3.743,8.647,21.157l0.018,0.041l0.016,0.04      c-1.839,1.104-4.672,1.814-6.471,2.9c-0.311-0.433-2.196-6.566-8.794-21.284l-0.056-0.026c-1.501-0.148-4.288,1.381-5.01,1.435      c-0.36-0.322-1.863-3.63-2.672-6.238c-0.013-0.041-0.051-0.024-0.069-0.064c5.443-2.212,11.343-4.793,17.086-6.378      C368.635,92.858,369.641,95.387,370.127,97.427z"/>
				<path style="fill:#FFFFFF;" d="M396.546,108.274c0.6,1.763,1.13,3.768,1.11,5.561c-5.692,1.457-11.638,3.473-17.148,4.435      c-2.556-9.692-5.514-18.871-7.495-28.58c6.384-2.043,17.159-5.061,17.223-4.814c0.81,1.887,1.048,3.969,1.568,5.932l0.009,0.041      c-3.34,1.731-7.221,2.085-10.808,3.388l-0.127,0.034l-0.031,0.053c0.473,1.616,0.56,3.471,1.33,4.874l0.056,0.031      c1.703-0.315,3.444-0.82,5.17-1.229l0.009,0.039c0.788,1.803,1.033,3.749,1.617,5.785c-1.59,0.91-4.47,1.18-4.934,1.792      c0.138,1.707,0.899,3.919,1.379,5.223l0.053,0.031c3.677-0.97,7.228-1.552,10.997-2.68L396.546,108.274z"/>
			</g>
		</g>
	</g>
</g>















</svg>