<?xml version="1.0" encoding="UTF-8"?>
<!-- Generator: Adobe Illustrator 25.2.0, SVG Export Plug-In . SVG Version: 6.00 Build 0)  -->
<svg xmlns="http://www.w3.org/2000/svg" xmlns:xlink="http://www.w3.org/1999/xlink" version="1.1" id="Capa_1" x="0px" y="0px" viewBox="0 0 512 512" style="enable-background:new 0 0 512 512;" xml:space="preserve" width="512" height="512">
<g>
	<polygon style="fill:#648F9F;" points="165.607,204.65 109.618,205.615 104.792,158.314 124.098,157.349 99,110.048    68.109,157.349 91.277,156.383 91.277,222.991 162.711,234.575  "/>
	<polygon style="fill:#F7D76F;" points="170.998,253.366 84.524,268.819 78.443,223.816 47.933,234.171 44.638,210.245    10.363,237.943 45.562,275.781 49.089,251.616 70.266,243.909 75.396,289.081 178.503,284.385  "/>
	<polygon style="fill:#648F9F;" points="164.667,285.006 88.194,326.745 113.346,356.065 103.538,382.355 75.554,373.475    87.283,420.986 142.25,400.768 121.421,386.865 142.147,356.067 120.697,333.323 179.978,312.942  "/>
	<polygon style="fill:#A8D5CB;" points="202.052,332.537 179.888,379.406 160.445,372.854 170.614,413.852 220.026,398.24    193.1,384.921 224.645,348.005  "/>
	<polygon style="fill:#A8D5CB;" points="205.085,152.33 162.372,122.944 171.954,104.802 129.857,108.272 137.351,159.547    154.812,135.102 186.198,172.154  "/>
	<polygon style="fill:#A8D5CB;" points="356.756,204.65 412.745,205.615 417.572,158.314 398.265,157.349 423.364,110.048    454.254,157.349 431.086,156.383 431.086,222.991 359.652,234.575  "/>
	<polygon style="fill:#648F9F;" points="351.365,253.366 437.84,268.819 443.92,223.816 474.43,234.171 477.725,210.245    512,237.943 476.801,275.781 473.274,251.616 452.097,243.909 446.967,289.081 343.861,284.385  "/>
	<polygon style="fill:#A8D5CB;" points="357.696,285.006 434.169,326.745 409.017,356.065 418.825,382.355 446.809,373.475    435.08,420.986 380.113,400.768 400.943,386.865 380.216,356.067 401.667,333.323 342.386,312.942  "/>
	<path style="fill:#FCFCFC;" d="M418.491,435.33c-0.025-0.11-0.066-0.215-0.121-0.312c-0.005-0.007-0.009-0.016-0.014-0.025   c-0.002-0.005-0.007-0.009-0.009-0.016c-0.034-0.069-0.078-0.135-0.128-0.199h-0.002c-0.018-0.023-0.039-0.046-0.062-0.069   c-0.055-0.06-0.117-0.112-0.181-0.158c-0.05-0.034-0.101-0.069-0.16-0.101c-4.682-2.893-40.975-9.656-49.76-9.656   c-1.303,0-3.732,0-3.887,1.716c-0.302,3.342,5.551,9.302,7.704,11.373c-2.855,6.914-6.013,15.32-5.28,17.065   c0.131,0.316,0.419,0.745,1.038,0.994c0.328,0.133,0.733,0.19,1.196,0.19c1.625,0,3.913-0.712,5.763-1.404   c-2.336,11.258-0.698,12.022-0.006,12.34c0.154,0.069,0.458,0.131,0.628,0.131c3.878,0,39.257-25.842,42.764-30.275   C418.294,436.519,418.642,435.971,418.491,435.33z M366.552,427.225c0.284-0.043,0.751-0.085,1.5-0.085   c7.926,0,30.149,4.252,41.534,7.046c-11.568,0.383-32.405,1.888-35.949,2.146C370.348,433.197,367.013,429.154,366.552,427.225z    M368.795,453.812c0.212-1.974,2.783-9.079,5.294-15.159c4.482-0.328,26.918-1.936,37.561-2.18   c-7.928,2.332-23.565,6.272-34.162,8.829c-0.419,0.101-0.749,0.426-0.859,0.843c-0.567,2.163-1.04,4.087-1.438,5.82   C372.531,453.053,369.839,453.801,368.795,453.812z M375.695,464.691c-0.222-1.65,0.519-6.282,1.627-11.37   c0.105-0.196,0.156-0.411,0.139-0.636c0.388-1.747,0.816-3.536,1.261-5.266c19.27-4.657,29.155-7.314,34.249-8.916   C404.114,445.975,380.421,462.81,375.695,464.691z"/>
	<path style="fill:#FCFCFC;" d="M198.46,47.284c-2.99-4.153-45.889-12.918-51.174-12.918c-0.655,0-1.074,0.071-1.4,0.241   c0,0-0.002,0-0.002,0.002c-0.105,0.053-0.202,0.121-0.289,0.202c-0.066,0.055-0.128,0.119-0.181,0.19l-0.002,0.002   c-0.497,0.662-0.667,1.338,2.004,6.675c3.026,6.048,22.051,40.013,25.464,40.013c0.007,0,0.016,0,0.021,0   c0.763-0.013,2.567-0.054,4.944-11.299c1.819,1.766,4.297,3.855,5.886,3.902c0.023,0,0.046,0,0.069,0   c0.63,0,1.042-0.266,1.281-0.492c1.371-1.308,1.85-10.275,2.011-17.753c2.801-1.032,10.556-4.145,11.622-7.329   C198.806,48.443,198.895,47.889,198.46,47.284z M172.833,79.066c-3.578-3.624-18.526-28.548-23.636-38.946   c4.023,3.512,12.01,9.915,27.794,21.911c-0.286,1.762-0.612,3.572-0.958,5.328c-0.107,0.201-0.147,0.419-0.129,0.642   C174.877,73.104,173.697,77.642,172.833,79.066z M183.554,71.887c-0.935-0.356-3.126-2.173-5.153-4.272   c0.33-1.747,0.67-3.699,1.019-5.908c0.066-0.426-0.105-0.857-0.449-1.118c-8.691-6.602-21.451-16.498-27.771-21.811   c7.762,3.629,23.005,11.506,33.551,17.082C184.606,62.551,184.098,70.238,183.554,71.887z M186.094,53.918   c-6.547-3.466-22.436-11.813-32.041-16.365c13.128,2.245,38.632,8.37,42.203,10.847C195.085,49.978,190.385,52.358,186.094,53.918z   "/>
	<path style="fill:#FCFCFC;" d="M473.928,348.947c-2.023,0-6.038-3.06-9.243-5.816c-2.742,0.974-9.165,3.15-11.681,3.15   c-0.465,0-1.136-0.062-1.574-0.593c-0.222-0.273-0.353-0.816-0.284-1.161c0.018-0.096,0.05-0.192,0.094-0.282   c0.023-0.046,2.142-4.417,4.836-9.504c-5.594-6.247-5.033-7.915-4.818-8.554c0.231-0.685,0.811-1.157,1.59-1.299   c1.604-0.282,4.444-0.133,8.517,0.433c4.272-7.024,5.77-7.626,6.836-7.626c0.463,0,0.882,0.17,1.214,0.493   c1.308,1.267,2.666,5.603,3.633,9.285c2.506,0.554,9.053,2.071,10.533,3.044c0.635,0.419,0.967,1.061,0.909,1.757   c-0.062,0.751-0.202,2.481-9.081,6.547c0.728,4.774,0.788,7.844,0.181,9.133C475.293,348.585,474.686,348.947,473.928,348.947z    M473.928,346.601v1.173V346.601L473.928,346.601L473.928,346.601z M467.223,342.203c3.317,2.758,5.443,4.027,6.357,4.327   c0.144-0.877,0.149-2.925-0.394-6.723C471.307,340.616,469.289,341.427,467.223,342.203z M457.764,336.565   c-1.581,3.005-2.925,5.686-3.702,7.253c1.636-0.279,4.579-1.077,8.611-2.467C460.967,339.798,459.287,338.16,457.764,336.565z    M458.925,334.38c1.89,2.018,4.075,4.137,6.263,6.077c2.657-0.974,5.262-2.014,7.617-3.042c-0.442-2.577-1.024-5.349-1.672-7.96   c-2.96-0.628-5.947-1.18-8.561-1.585C461.464,329.748,460.24,331.931,458.925,334.38z M473.683,330.016   c0.502,2.124,0.958,4.316,1.331,6.403c4.895-2.284,6.453-3.576,6.939-4.112C480.878,331.842,477.932,330.985,473.683,330.016z    M453.544,327.155c0.163,0.564,0.848,2.091,3.711,5.379c0.994-1.833,1.933-3.512,2.809-5.021   C457.075,327.132,454.786,327.008,453.544,327.155z M463.885,325.703c2.066,0.337,4.32,0.754,6.586,1.219   c-1.104-3.991-1.972-5.984-2.458-6.746C467.585,320.519,466.38,321.705,463.885,325.703z"/>
	<path style="fill:#FCFCFC;" d="M57.946,352.076c-2.02,0-6.038-3.063-9.241-5.816c-2.742,0.971-9.163,3.148-11.681,3.148   c-0.465,0-1.136-0.062-1.574-0.593c-0.222-0.273-0.353-0.816-0.284-1.161c0.018-0.096,0.05-0.192,0.094-0.282   c0.023-0.046,2.142-4.414,4.836-9.502c-5.596-6.249-5.033-7.915-4.818-8.554c0.231-0.685,0.811-1.159,1.59-1.299   c1.594-0.291,4.435-0.14,8.517,0.433c4.272-7.026,5.77-7.628,6.836-7.628c0.463,0,0.882,0.17,1.214,0.493   c1.308,1.269,2.666,5.603,3.633,9.285c2.506,0.557,9.055,2.073,10.533,3.049c0.635,0.417,0.967,1.058,0.909,1.755   c-0.062,0.751-0.202,2.481-9.081,6.547c0.726,4.774,0.786,7.844,0.179,9.131c-0.298,0.632-0.905,0.996-1.661,0.996H57.946z    M57.946,349.731v1.173l0.002-1.173C57.946,349.731,57.946,349.731,57.946,349.731L57.946,349.731z M51.241,345.332   c3.319,2.756,5.443,4.027,6.357,4.327c0.144-0.88,0.151-2.928-0.394-6.723C55.327,343.745,53.309,344.556,51.241,345.332z    M41.784,339.692c-1.581,3.005-2.925,5.688-3.702,7.253c1.636-0.279,4.579-1.074,8.611-2.465   C44.987,342.927,43.305,341.287,41.784,339.692z M42.946,337.507c1.89,2.018,4.075,4.139,6.263,6.077   c2.657-0.974,5.262-2.014,7.617-3.042c-0.444-2.577-1.026-5.349-1.672-7.96c-2.962-0.628-5.947-1.18-8.561-1.583   C45.484,332.875,44.261,335.06,42.946,337.507z M57.703,333.143c0.502,2.124,0.958,4.316,1.329,6.405   c4.898-2.284,6.455-3.578,6.941-4.114C64.898,334.971,61.95,334.114,57.703,333.143z M37.565,330.284   c0.163,0.561,0.848,2.091,3.711,5.379c0.992-1.835,1.931-3.514,2.806-5.021C41.09,330.257,38.802,330.128,37.565,330.284z    M47.905,328.832c2.066,0.334,4.318,0.751,6.586,1.216c-1.104-3.988-1.972-5.983-2.458-6.746   C51.605,323.646,50.4,324.832,47.905,328.832z"/>
	<path style="fill:#FCFCFC;" d="M228.586,438.058c-0.891,0-1.734,0-3.887-9.47c-7.928-1.709-8.6-2.653-8.824-2.969   c-0.211-0.298-0.293-0.841-0.188-1.189c0.153-0.502,0.511-1.663,9.676-5.122c3.432-8.387,4.515-8.387,5.237-8.387   c0.38,0,0.905,0.279,1.125,0.589c0.564,0.793,1.047,2.838,1.773,6.114c0.231,1.035,0.509,2.286,0.671,2.829   c0.47,0.222,1.526,0.628,2.398,0.962c4.623,1.775,5.809,2.369,6,3.471c0.071,0.408-0.151,1.001-0.465,1.269   c-0.962,0.827-5.53,2.405-7.91,3.193c-4.039,8.661-4.85,8.687-5.569,8.71C228.611,438.058,228.597,438.058,228.586,438.058z    M218.854,424.676c1.567,0.499,4.501,1.237,7.062,1.773c0.451,0.094,0.804,0.442,0.905,0.893c0.596,2.673,1.388,5.725,1.961,7.429   c0.919-1.553,2.339-4.375,3.493-6.87c0.137-0.296,0.392-0.52,0.701-0.623c2.215-0.724,4.724-1.62,6.252-2.254   c-1.061-0.481-2.547-1.051-3.503-1.418c-2.637-1.013-3.132-1.228-3.459-1.688c-0.289-0.405-0.458-1.079-1.058-3.784   c-0.234-1.047-0.593-2.666-0.914-3.849c-0.832,1.484-2.02,4.082-2.951,6.382c-0.124,0.305-0.369,0.543-0.678,0.66   C223.793,422.399,220.527,423.78,218.854,424.676z"/>
	<path style="fill:#FCFCFC;" d="M458.431,198.727c-0.877,0-1.709,0-4.103-9.365c-7.97-1.498-8.664-2.424-8.897-2.733   c-0.22-0.291-0.316-0.832-0.22-1.182c0.14-0.506,0.465-1.677,9.539-5.379c3.223-8.524,4.318-8.522,5.047-8.522   c0.369,0,0.882,0.266,1.102,0.561c0.586,0.774,1.122,2.806,1.938,6.064c0.259,1.029,0.57,2.27,0.747,2.806   c0.474,0.211,1.544,0.589,2.431,0.903c4.659,1.647,5.862,2.208,6.082,3.306c0.08,0.405-0.126,1.003-0.433,1.281   c-0.942,0.854-5.464,2.554-7.823,3.404c-3.805,8.765-4.616,8.813-5.335,8.854C458.483,198.727,458.454,198.727,458.431,198.727z    M448.383,185.606c1.583,0.458,4.533,1.118,7.108,1.585c0.451,0.082,0.816,0.421,0.928,0.868c0.667,2.66,1.542,5.688,2.158,7.379   c0.875-1.578,2.222-4.437,3.31-6.964c0.128-0.298,0.376-0.529,0.683-0.639c2.197-0.783,4.68-1.748,6.192-2.421   c-1.072-0.451-2.568-0.98-3.53-1.322c-2.671-0.944-3.173-1.148-3.514-1.601c-0.296-0.394-0.483-1.061-1.157-3.748   c-0.261-1.042-0.664-2.653-1.017-3.826c-0.79,1.505-1.91,4.133-2.779,6.455c-0.117,0.309-0.355,0.554-0.66,0.678   C453.26,183.2,450.03,184.666,448.383,185.606z"/>
	<path style="fill:#FCFCFC;" d="M289.277,83.348c-0.88,0-1.711,0-4.103-9.362c-7.972-1.498-8.666-2.424-8.9-2.735   c-0.218-0.291-0.314-0.832-0.218-1.182c0.142-0.506,0.467-1.679,9.539-5.379c3.225-8.522,4.318-8.522,5.047-8.522   c0.369,0,0.88,0.266,1.102,0.559c0.584,0.779,1.12,2.808,1.936,6.061c0.259,1.031,0.57,2.275,0.747,2.813   c0.474,0.208,1.539,0.586,2.424,0.898c4.669,1.652,5.871,2.213,6.091,3.31c0.08,0.405-0.126,1.003-0.433,1.281   c-0.941,0.852-5.464,2.552-7.823,3.404c-3.805,8.762-4.616,8.81-5.335,8.852C289.33,83.348,289.3,83.348,289.277,83.348z    M279.228,70.228c1.581,0.458,4.536,1.118,7.111,1.585c0.451,0.082,0.816,0.422,0.928,0.868c0.667,2.66,1.539,5.688,2.158,7.376   c0.875-1.576,2.222-4.435,3.31-6.962c0.128-0.298,0.376-0.529,0.683-0.639c2.197-0.783,4.678-1.748,6.19-2.424   c-1.074-0.451-2.573-0.98-3.537-1.322c-2.664-0.942-3.166-1.145-3.505-1.597c-0.298-0.399-0.486-1.068-1.159-3.757   c-0.261-1.04-0.664-2.646-1.015-3.819c-0.79,1.507-1.911,4.133-2.779,6.453c-0.117,0.309-0.355,0.554-0.66,0.678   C284.105,67.821,280.875,69.287,279.228,70.228z"/>
	<path style="fill:#FCFCFC;" d="M13.257,298.653c-0.877,0-1.709,0-4.103-9.362c-7.97-1.498-8.664-2.424-8.897-2.733   c-0.22-0.291-0.316-0.832-0.22-1.182c0.14-0.506,0.465-1.677,9.539-5.379c3.225-8.524,4.318-8.524,5.047-8.524   c0.369,0,0.88,0.266,1.102,0.559c0.586,0.779,1.122,2.811,1.938,6.066c0.259,1.029,0.57,2.272,0.747,2.809   c0.474,0.211,1.544,0.589,2.431,0.903c4.659,1.647,5.862,2.208,6.082,3.306c0.08,0.405-0.126,1.003-0.433,1.281   c-0.942,0.854-5.464,2.554-7.823,3.404c-3.807,8.767-4.618,8.813-5.338,8.852C13.308,298.653,13.28,298.653,13.257,298.653z    M3.21,285.534c1.583,0.458,4.533,1.118,7.108,1.585c0.451,0.082,0.816,0.422,0.928,0.868c0.667,2.66,1.542,5.688,2.16,7.376   c0.873-1.576,2.22-4.435,3.308-6.962c0.128-0.298,0.376-0.529,0.683-0.639c2.197-0.783,4.68-1.748,6.192-2.421   c-1.072-0.451-2.568-0.98-3.53-1.322c-2.671-0.944-3.173-1.148-3.514-1.601c-0.296-0.394-0.483-1.061-1.157-3.75   c-0.261-1.04-0.664-2.65-1.017-3.826c-0.79,1.507-1.911,4.135-2.779,6.458c-0.117,0.309-0.355,0.554-0.66,0.678   C8.087,283.129,4.857,284.595,3.21,285.534z"/>
	<path style="fill:#FCFCFC;" d="M264.693,420.765c-4.847,0-8.792-3.945-8.792-8.792s3.945-8.792,8.792-8.792   s8.792,3.945,8.792,8.792S269.54,420.765,264.693,420.765z M264.693,405.527c-3.555,0-6.446,2.891-6.446,6.446   c0,3.555,2.891,6.446,6.446,6.446s6.446-2.891,6.446-6.446C271.139,408.418,268.248,405.527,264.693,405.527z"/>
	<path style="fill:#FCFCFC;" d="M481.865,162.934c-4.847,0-8.792-3.945-8.792-8.792c0-4.847,3.945-8.792,8.792-8.792   c4.847,0,8.792,3.945,8.792,8.792C490.657,158.989,486.713,162.934,481.865,162.934z M481.865,147.696   c-3.555,0-6.446,2.891-6.446,6.446s2.891,6.446,6.446,6.446c3.555,0,6.446-2.891,6.446-6.446S485.421,147.696,481.865,147.696z"/>
	<path style="fill:#FCFCFC;" d="M58.067,120.71c-4.85,0-8.794-3.945-8.794-8.792s3.945-8.792,8.794-8.792   c4.847,0,8.792,3.945,8.792,8.792S62.914,120.71,58.067,120.71z M58.067,105.472c-3.555,0-6.449,2.891-6.449,6.446   s2.893,6.446,6.449,6.446c3.555,0,6.446-2.891,6.446-6.446S61.622,105.472,58.067,105.472z"/>
	<polygon style="fill:#F7D76F;" points="320.312,332.537 342.475,379.406 361.918,372.854 351.749,413.852 302.337,398.24    329.263,384.921 297.718,348.005  "/>
	<polygon style="fill:#F7D76F;" points="314.932,167.577 357.646,138.192 348.063,120.05 390.16,123.52 382.666,174.794    365.205,150.35 333.82,187.401  "/>
	<g>
		<path style="fill:#EC7E96;" d="M250.292,323.376c0,0,10.69-203.117-7.636-209.226s-56.506,10.69-44.289,41.234    s29.017-22.908-21.381-9.163c-50.398,13.745-22.908,64.142,12.218,58.034s-24.435-44.289-51.925-6.109s38.18,56.506,42.762,39.707    c4.582-16.799-74.833-24.435-59.561,32.071c12.119,44.839,90.105,9.163,58.034,6.109c-32.071-3.054-67.483,34.553-26.631,58.606    c36.938,21.749,53.357-29.589,30.449-20.426c-22.908,9.163-32.014,44.466,10.69,50.398c27.49,3.818,48.107-30.544,22.144-19.854    C189.204,355.447,247.237,437.916,250.292,323.376z"/>
		<path style="fill:#FCFCFC;" d="M222.916,172.928c-2.804,0-5.502-0.653-8.073-1.959c-12.858-6.529-18.012-27.015-18.225-27.883    c-0.156-0.63,0.229-1.265,0.859-1.418c0.637-0.156,1.267,0.229,1.418,0.859c0.05,0.202,5.118,20.317,17.016,26.353    c4.357,2.211,9.163,2.252,14.299,0.142c8.102-3.338,10.148-9.191,10.439-13.511c0.488-7.246-3.851-15.882-9.669-19.252    c-2.032-1.177-5.088-2.167-8.073-0.176c-5.182,3.454-7.42,7.855-6.144,12.072c0.914,3.017,3.633,5.379,6.194,5.379    c0.648,0,1.173,0.525,1.173,1.173c0,0.648-0.525,1.173-1.173,1.173c-3.594,0-7.223-3.028-8.439-7.044    c-0.756-2.497-1.578-8.927,7.088-14.704c3.109-2.075,6.859-2.039,10.549,0.099c6.627,3.837,11.385,13.254,10.835,21.437    c-0.474,7.049-4.696,12.563-11.887,15.522C228.29,172.349,225.555,172.928,222.916,172.928z"/>
		<path style="fill:#FCFCFC;" d="M181.515,196.148c-3.425,0-7.45-0.69-12.12-2.499c-9.734-3.768-14.801-8.464-15.062-13.96    c-0.263-5.619,4.932-11.518,14.26-16.182c3.702-1.851,6.471-1.975,8.228-0.376c4.712,4.277-1.038,19.701-1.709,21.446    c-0.231,0.605-0.905,0.905-1.516,0.673c-0.605-0.234-0.905-0.912-0.673-1.516c2.311-6.011,4.985-16.45,2.323-18.867    c-1.214-1.097-3.718-0.208-5.603,0.738c-8.46,4.229-13.186,9.323-12.966,13.974c0.208,4.419,4.9,8.529,13.566,11.885    c12.76,4.939,20.104,0.937,23.348-1.89c4.472-3.892,6.506-10.034,5.186-15.648c-0.149-0.63,0.241-1.262,0.873-1.409    c0.641-0.163,1.262,0.245,1.409,0.873c1.519,6.451-0.809,13.497-5.929,17.953C192.71,193.449,188.286,196.148,181.515,196.148z"/>
		<path style="fill:#FCFCFC;" d="M229.41,314.146c-0.385,0-0.761-0.188-0.985-0.534c-0.353-0.543-0.199-1.269,0.344-1.624    c0.089-0.057,8.879-5.853,9.805-13.664c0.444-3.768-1.026-7.47-4.378-11.003c-7.594-8.013-16.239-8.73-21.05-6.004    c-3.633,2.057-5.092,5.832-3.906,10.098c1.484,5.328,5.665,8.639,8.923,9.459c1.084,0.277,3.095,0.534,4.375-0.804    c1.368-1.42,1.51-4.272,0.401-8.029c-0.183-0.621,0.172-1.274,0.793-1.457c0.619-0.179,1.274,0.172,1.457,0.793    c1.739,5.894,0.438,8.865-0.96,10.32c-1.535,1.599-3.963,2.126-6.639,1.452c-4.025-1.013-8.865-4.84-10.609-11.106    c-1.475-5.289,0.444-10.182,5.008-12.767c5.775-3.269,15.403-2.545,23.911,6.433c3.853,4.064,5.537,8.405,5.001,12.902    c-1.061,8.909-10.455,15.089-10.856,15.348C229.848,314.084,229.628,314.146,229.41,314.146z"/>
		<path style="fill:#FCFCFC;" d="M184.894,244.311c-9.786,0-12.977-5.956-13.82-8.16c-2.282-5.974,0.147-13.429,5.198-15.955    c5.853-2.923,11.529-1.255,14.109,1.911c2.49,3.051,2.252,7.069-0.635,10.744c-0.401,0.515-1.141,0.596-1.647,0.199    c-0.511-0.401-0.598-1.139-0.199-1.647c2.195-2.792,2.435-5.64,0.664-7.814c-1.993-2.442-6.497-3.665-11.243-1.294    c-3.968,1.984-5.901,8.19-4.057,13.018c2.385,6.231,9.612,8.206,19.831,5.418c5.486-1.496,9.044-4.341,10.574-8.453    c4.119-11.064-7.115-27.961-7.23-28.131c-0.362-0.538-0.218-1.267,0.318-1.629c0.534-0.36,1.267-0.22,1.629,0.318    c0.493,0.733,12.015,18.077,7.482,30.259c-1.807,4.861-5.899,8.192-12.155,9.898C190.3,243.924,187.384,244.311,184.894,244.311z"/>
		<path style="fill:#FCFCFC;" d="M147.859,236.591c-4.753,0-9.74-1.242-12.945-5.475c-4.76-6.281-4.781-17.671-0.044-24.374    c2.898-4.098,7.033-5.551,11.642-4.082c4.325,1.377,6.817,4.32,6.845,8.077c0.023,3.658-2.41,7.454-5.425,8.46    c-2.007,0.667-3.938,0-5.296-1.837c-0.385-0.52-0.275-1.255,0.247-1.64c0.515-0.376,1.253-0.275,1.64,0.247    c0.754,1.022,1.629,1.352,2.666,1.003c1.823-0.607,3.839-3.31,3.821-6.217c-0.014-1.922-0.928-4.494-5.209-5.858    c-4.563-1.448-7.418,0.942-9.016,3.2c-4.135,5.851-4.135,16.148-0.002,21.604c6.545,8.639,23.096,2.261,23.263,2.195    c0.591-0.241,1.283,0.057,1.519,0.662c0.238,0.602-0.057,1.283-0.662,1.519C160.472,234.248,154.385,236.591,147.859,236.591z"/>
		<path style="fill:#FCFCFC;" d="M176.409,294.211c-7.431,0-14.097-2.678-14.592-2.88c-0.598-0.247-0.884-0.932-0.639-1.53    c0.25-0.6,0.941-0.884,1.53-0.641c0.202,0.082,20.131,8.064,28.362-4.151c4.318-6.407,1.084-13.252-2.999-17.165    c-4.369-4.19-11.495-6.911-16.807-2.999c-6.164,4.543-7.431,9.172-6.561,11.992c0.671,2.183,2.666,3.546,5.335,3.645    c1.636,0.071,2.721-0.328,3.381-1.187c1.303-1.702,0.676-5.031,0.323-6.169c-0.19-0.618,0.153-1.276,0.772-1.468    c0.625-0.183,1.276,0.153,1.468,0.77c0.066,0.215,1.608,5.271-0.699,8.288c-1.139,1.489-2.955,2.188-5.333,2.112    c-3.654-0.135-6.524-2.167-7.491-5.301c-1.106-3.587,0.259-9.301,7.411-14.569c6.412-4.726,14.769-1.656,19.824,3.193    c4.74,4.543,8.453,12.553,3.322,20.168C188.866,292.477,182.39,294.211,176.409,294.211z"/>
		<path style="fill:#FCFCFC;" d="M220.967,271.235c-3.246,0-6.226-0.687-8.923-2.064c-8.247-4.21-10.716-13.28-10.817-13.664    c-0.165-0.625,0.208-1.265,0.834-1.432c0.63-0.158,1.267,0.211,1.434,0.834c0.023,0.085,2.325,8.464,9.637,12.185    c4.937,2.515,11.064,2.387,18.205-0.378c12.111-4.689,15.167-13.504,13.99-20.191c-1.324-7.523-7.699-12.888-15.502-13.051    c-0.165-0.005-0.328-0.005-0.49-0.005c-9.117,0-13.193,5.399-13.907,10.095c-0.616,4.055,1.104,8.84,5.585,10.134    c4.474,1.297,7.532,1.255,8.602-0.11c1.571-2.002-0.644-6.92-1.544-8.487c-0.323-0.561-0.128-1.278,0.433-1.601    c0.554-0.323,1.276-0.131,1.601,0.433c0.435,0.758,4.176,7.509,1.356,11.103c-1.771,2.266-5.404,2.561-11.099,0.916    c-5.102-1.475-8.153-6.833-7.253-12.744c0.873-5.715,5.715-12.329,16.766-12.082c8.936,0.186,16.242,6.35,17.763,14.991    c1.338,7.603-2.018,17.582-15.454,22.782C228.164,270.458,224.416,271.235,220.967,271.235z"/>
		<path style="fill:#FCFCFC;" d="M172.78,340.787c-5.145,0-8.723-1.617-8.794-1.649c-0.584-0.273-0.838-0.969-0.566-1.555    c0.273-0.589,0.967-0.85,1.558-0.57c0.499,0.231,12.338,5.509,23.609-5.228c6.185-5.892,4.98-14.402,2.066-19.902    c-2.983-5.631-9.621-11.502-18.477-9.601c-10.412,2.256-15.536,8.529-15.891,13.401c-0.279,3.835,2.169,6.923,6.893,8.696    c6.863,2.575,10.909,0.195,12.276-2.63c1.214-2.499,0.676-6.105-2.703-8.155c-0.552-0.337-0.728-1.058-0.394-1.613    c0.339-0.552,1.061-0.726,1.613-0.394c4.577,2.781,5.273,7.731,3.594,11.188c-1.798,3.711-6.863,6.934-15.211,3.798    c-5.699-2.137-8.764-6.169-8.407-11.06c0.509-6.987,7.8-13.371,17.735-15.522c8.359-1.821,16.61,2.426,21.045,10.794    c4.341,8.194,3.351,17.105-2.522,22.699C184.101,339.296,177.719,340.787,172.78,340.787z"/>
		<path style="fill:#FCFCFC;" d="M209.785,360.28c-1.823,0-3.679-0.243-5.521-0.742c-9.372-2.54-11.369-9.956-10.114-16.045    c1.271-6.169,6.348-12.276,12.304-11.447c2.989,0.426,4.918,1.642,5.734,3.613c1.668,4.027-2.22,9.394-2.669,9.992    c-0.389,0.52-1.127,0.625-1.642,0.236c-0.518-0.389-0.623-1.122-0.236-1.642c0.996-1.333,3.365-5.315,2.378-7.69    c-0.476-1.15-1.787-1.885-3.894-2.185c-4.474-0.653-8.616,4.446-9.676,9.598c-0.506,2.447-1.391,10.643,8.43,13.307    c7.537,2.046,15.289-0.767,19.304-6.994c4.123-6.391,3.198-14.313-2.476-21.194c-4.847-5.878-9.676-9.039-14.354-9.397    c-4.433-0.314-7.04,1.977-7.15,2.075c-0.483,0.426-1.223,0.392-1.654-0.087c-0.433-0.479-0.399-1.214,0.078-1.649    c0.135-0.128,3.466-3.056,8.833-2.683c5.363,0.383,10.764,3.83,16.056,10.247c6.263,7.596,7.273,16.775,2.637,23.959    C222.57,357.107,216.392,360.277,209.785,360.28z"/>
		<path style="fill:#FCFCFC;" d="M228.336,214.905c-6.529,0-14.276-3.798-17.655-14.611c-1.558-4.992-1.097-9.468,1.372-13.305    c6.13-9.527,22.459-11.669,23.151-11.756c0.635-0.087,1.228,0.371,1.31,1.017c0.08,0.644-0.376,1.23-1.017,1.31    c-0.16,0.021-15.942,2.096-21.474,10.703c-2.073,3.225-2.444,7.037-1.102,11.33c3.993,12.776,13.559,13.131,16.4,12.931    c5.663-0.389,10.32-3.938,11.069-8.435c0.946-5.679-2.696-10.439-6.762-11.763c-3.887-1.253-7.39,0.58-9.621,5.044    c-0.291,0.582-0.99,0.818-1.574,0.525c-0.58-0.289-0.813-0.994-0.525-1.574c3.257-6.515,8.568-7.486,12.446-6.224    c5.01,1.629,9.504,7.452,8.35,14.377c-0.925,5.557-6.487,9.926-13.222,10.389C229.106,214.891,228.723,214.905,228.336,214.905z"/>
		<path style="fill:#FCFCFC;" d="M146.755,276.439c-1.544,0-3.168-0.348-4.82-1.054c-6.41-2.749-7.681-7.438-7.869-9.99    c-0.282-3.812,1.443-7.658,4.194-9.353c1.755-1.079,3.658-1.116,5.36-0.094c0.557,0.332,0.738,1.054,0.403,1.608    c-0.332,0.559-1.058,0.74-1.608,0.403c-0.942-0.561-1.922-0.536-2.925,0.08c-1.718,1.058-3.331,3.865-3.086,7.184    c0.257,3.489,2.55,6.332,6.455,8.004c4.087,1.759,7.798,0.799,10.171-2.616c3.658-5.257,3.379-14.979-3.427-22.143    c-3.106-3.274-6.449-4.891-9.873-4.689c-6.361,0.296-11.234,6.4-11.282,6.462c-0.399,0.513-1.136,0.596-1.647,0.199    c-0.509-0.401-0.598-1.136-0.199-1.647c0.222-0.284,5.562-7.001,13.002-7.358c4.181-0.181,8.096,1.622,11.699,5.415    c7.631,8.034,7.848,19.071,3.651,25.1C152.905,274.9,150.007,276.439,146.755,276.439z"/>
	</g>
	<g>
		<path style="fill:#EC7E96;" d="M269.434,323.376c0,0-10.69-203.117,7.636-209.226s56.506,10.69,44.289,41.234    s-29.017-22.908,21.381-9.163c50.398,13.745,22.908,64.142-12.218,58.034s24.435-44.289,51.925-6.109s-38.18,56.506-42.762,39.707    s74.833-24.435,59.561,32.071c-12.119,44.839-90.105,9.163-58.034,6.109c32.071-3.054,67.483,34.553,26.631,58.606    c-36.938,21.749-53.357-29.589-30.449-20.426c22.908,9.163,32.014,44.466-10.69,50.398c-27.49,3.818-48.107-30.544-22.144-19.854    C330.522,355.447,272.488,437.916,269.434,323.376z"/>
		<path style="fill:#FCFCFC;" d="M296.81,172.928c-2.639,0-5.374-0.58-8.187-1.739c-7.191-2.96-11.413-8.474-11.887-15.522    c-0.55-8.183,4.208-17.6,10.835-21.437c3.69-2.14,7.44-2.174,10.549-0.099c8.666,5.777,7.844,12.21,7.088,14.707    c-1.216,4.013-4.843,7.042-8.437,7.042c-0.648,0-1.173-0.525-1.173-1.173c0-0.648,0.525-1.173,1.173-1.173    c2.559,0,5.28-2.362,6.192-5.376c1.278-4.22-0.962-8.62-6.144-12.075c-2.987-1.991-6.038-1.001-8.073,0.176    c-5.819,3.37-10.157,12.006-9.669,19.252c0.291,4.32,2.337,10.173,10.439,13.511c5.134,2.112,9.944,2.069,14.299-0.142    c11.898-6.036,16.966-26.151,17.016-26.353c0.153-0.63,0.783-1.015,1.418-0.859c0.63,0.153,1.015,0.788,0.859,1.418    c-0.213,0.868-5.367,21.355-18.225,27.883C302.312,172.276,299.613,172.928,296.81,172.928z"/>
		<path style="fill:#FCFCFC;" d="M338.211,196.148c-6.772,0-11.195-2.699-13.614-4.806c-5.12-4.456-7.447-11.502-5.929-17.953    c0.147-0.628,0.774-1.035,1.409-0.873c0.632,0.147,1.022,0.779,0.873,1.409c-1.319,5.615,0.715,11.756,5.186,15.648    c3.244,2.822,10.595,6.824,23.348,1.89c8.666-3.356,13.358-7.466,13.566-11.885c0.22-4.65-4.506-9.745-12.966-13.974    c-1.888-0.946-4.391-1.833-5.603-0.738c-2.662,2.417,0.011,12.856,2.323,18.867c0.231,0.605-0.069,1.283-0.673,1.516    c-0.612,0.231-1.285-0.071-1.517-0.673c-0.671-1.746-6.421-17.169-1.709-21.446c1.757-1.594,4.527-1.475,8.228,0.376    c9.328,4.664,14.523,10.563,14.26,16.182c-0.261,5.496-5.328,10.192-15.062,13.96C345.66,195.456,341.635,196.148,338.211,196.148    z"/>
		<path style="fill:#FCFCFC;" d="M290.315,314.146c-0.218,0-0.438-0.062-0.635-0.188c-0.401-0.259-9.795-6.439-10.856-15.348    c-0.536-4.497,1.148-8.838,5.001-12.902c8.51-8.975,18.138-9.697,23.911-6.433c4.563,2.584,6.483,7.477,5.008,12.767    c-1.743,6.265-6.584,10.093-10.609,11.106c-2.676,0.676-5.104,0.147-6.639-1.452c-1.397-1.455-2.699-4.426-0.96-10.32    c0.186-0.621,0.841-0.971,1.457-0.793c0.621,0.183,0.976,0.836,0.793,1.457c-1.109,3.757-0.967,6.609,0.401,8.029    c1.283,1.338,3.294,1.079,4.375,0.804c3.258-0.82,7.438-4.13,8.923-9.459c1.187-4.265-0.273-8.041-3.906-10.098    c-4.811-2.726-13.456-2.009-21.05,6.004c-3.351,3.532-4.822,7.234-4.378,11.003c0.925,7.812,9.715,13.607,9.805,13.664    c0.543,0.355,0.696,1.081,0.344,1.624C291.076,313.958,290.7,314.146,290.315,314.146z"/>
		<path style="fill:#FCFCFC;" d="M334.832,244.311c-2.49,0-5.404-0.387-8.819-1.317c-6.256-1.707-10.347-5.037-12.155-9.898    c-4.533-12.182,6.989-29.526,7.482-30.259c0.364-0.538,1.095-0.676,1.629-0.318c0.536,0.362,0.68,1.09,0.318,1.629    c-0.115,0.17-11.344,17.082-7.23,28.133c1.53,4.112,5.088,6.955,10.574,8.451c10.219,2.788,17.449,0.813,19.831-5.418    c1.844-4.829-0.089-11.035-4.057-13.018c-4.749-2.371-9.252-1.148-11.243,1.294c-1.771,2.174-1.53,5.021,0.664,7.814    c0.399,0.509,0.312,1.246-0.199,1.647c-0.504,0.394-1.246,0.314-1.647-0.199c-2.886-3.674-3.125-7.692-0.635-10.744    c2.579-3.166,8.256-4.836,14.109-1.911c5.051,2.527,7.479,9.981,5.198,15.955C347.809,238.355,344.616,244.309,334.832,244.311z"/>
		<path style="fill:#FCFCFC;" d="M371.867,236.591c-6.526,0-12.613-2.343-13.044-2.515c-0.602-0.236-0.9-0.916-0.662-1.519    c0.236-0.605,0.928-0.898,1.519-0.664c0.17,0.064,16.727,6.426,23.263-2.192c4.133-5.457,4.133-15.754-0.002-21.604    c-1.599-2.259-4.456-4.648-9.016-3.2c-4.281,1.363-5.195,3.936-5.209,5.858c-0.018,2.907,1.998,5.61,3.821,6.217    c1.038,0.348,1.913,0.018,2.666-1.003c0.389-0.522,1.127-0.623,1.64-0.247c0.522,0.385,0.632,1.12,0.247,1.64    c-1.358,1.837-3.287,2.504-5.296,1.837c-3.015-1.006-5.447-4.801-5.425-8.46c0.027-3.757,2.52-6.701,6.845-8.077    c4.607-1.468,8.744-0.016,11.642,4.082c4.737,6.703,4.717,18.093-0.044,24.374C381.607,235.348,376.62,236.591,371.867,236.591z"/>
		<path style="fill:#FCFCFC;" d="M343.317,294.211c-5.984,0-12.457-1.734-16.608-7.892c-5.131-7.615-1.418-15.625,3.322-20.168    c5.056-4.85,13.417-7.917,19.824-3.193c7.152,5.269,8.517,10.982,7.411,14.569c-0.967,3.134-3.837,5.166-7.491,5.301    c-2.378,0.071-4.197-0.623-5.333-2.112c-2.307-3.017-0.765-8.073-0.699-8.288c0.195-0.616,0.845-0.955,1.468-0.77    c0.618,0.192,0.962,0.85,0.772,1.468c-0.353,1.139-0.98,4.467,0.323,6.169c0.66,0.859,1.748,1.239,3.381,1.187    c2.669-0.099,4.664-1.462,5.335-3.645c0.871-2.82-0.396-7.45-6.561-11.992c-5.312-3.915-12.437-1.191-16.807,2.999    c-4.082,3.913-7.317,10.758-2.999,17.165c8.226,12.214,28.161,4.233,28.362,4.151c0.593-0.243,1.283,0.044,1.53,0.641    c0.245,0.598-0.041,1.283-0.639,1.53C357.414,291.533,350.746,294.211,343.317,294.211z"/>
		<path style="fill:#FCFCFC;" d="M298.761,271.235c-3.45,0-7.198-0.777-11.218-2.334c-13.438-5.2-16.794-15.179-15.456-22.782    c1.521-8.641,8.826-14.805,17.763-14.991c10.913-0.284,15.893,6.364,16.766,12.082c0.9,5.91-2.151,11.268-7.253,12.744    c-5.693,1.642-9.326,1.347-11.099-0.916c-2.82-3.594,0.921-10.345,1.356-11.103c0.323-0.564,1.035-0.756,1.601-0.433    c0.561,0.323,0.756,1.04,0.433,1.601c-0.898,1.567-3.111,6.494-1.544,8.49c1.07,1.361,4.128,1.402,8.602,0.108    c4.481-1.294,6.201-6.08,5.585-10.134c-0.715-4.696-4.79-10.095-13.907-10.095c-0.163,0-0.325,0-0.49,0.005    c-7.802,0.163-14.178,5.528-15.502,13.051c-1.177,6.687,1.881,15.502,13.992,20.191c7.15,2.765,13.28,2.889,18.223,0.367    c7.324-3.739,9.594-12.088,9.617-12.171c0.163-0.625,0.813-1.01,1.432-0.836c0.628,0.165,1.001,0.806,0.836,1.432    c-0.101,0.385-2.57,9.454-10.819,13.664C304.985,270.548,302.005,271.235,298.761,271.235z"/>
		<path style="fill:#FCFCFC;" d="M346.945,340.787c-4.939,0-11.321-1.491-17.424-7.303c-5.874-5.594-6.863-14.505-2.522-22.699    c4.433-8.364,12.695-12.615,21.045-10.794c9.935,2.151,17.227,8.535,17.735,15.522c0.357,4.891-2.708,8.923-8.407,11.06    c-8.354,3.138-13.408-0.089-15.211-3.798c-1.679-3.457-0.983-8.407,3.594-11.188c0.552-0.332,1.274-0.156,1.613,0.394    c0.334,0.554,0.158,1.276-0.394,1.613c-3.379,2.05-3.917,5.656-2.703,8.155c1.37,2.825,5.418,5.205,12.276,2.63    c4.724-1.773,7.172-4.861,6.893-8.696c-0.355-4.872-5.48-11.145-15.891-13.401c-8.87-1.911-15.495,3.972-18.477,9.601    c-2.914,5.5-4.119,14.01,2.066,19.902c11.268,10.737,23.112,5.457,23.609,5.228c0.591-0.279,1.285-0.018,1.558,0.57    c0.273,0.586,0.018,1.283-0.566,1.555C355.669,339.17,352.091,340.787,346.945,340.787z"/>
		<path style="fill:#FCFCFC;" d="M309.94,360.28c-6.607,0-12.785-3.173-16.368-8.728c-4.637-7.184-3.626-16.363,2.637-23.959    c5.292-6.416,10.693-9.864,16.056-10.247c5.395-0.387,8.696,2.554,8.833,2.683c0.479,0.435,0.513,1.177,0.076,1.656    c-0.433,0.479-1.168,0.513-1.652,0.08l0,0c-0.112-0.099-2.717-2.387-7.15-2.075c-4.678,0.357-9.507,3.519-14.354,9.397    c-5.674,6.882-6.6,14.803-2.476,21.194c4.016,6.222,11.77,9.037,19.304,6.994c9.821-2.664,8.936-10.861,8.43-13.307    c-1.063-5.152-5.182-10.254-9.676-9.598c-2.11,0.3-3.42,1.038-3.897,2.188c-0.987,2.387,1.381,6.359,2.38,7.688    c0.387,0.518,0.282,1.253-0.236,1.642c-0.515,0.387-1.253,0.284-1.642-0.236c-0.449-0.598-4.336-5.965-2.669-9.992    c0.816-1.97,2.744-3.186,5.734-3.613c5.954-0.845,11.032,5.278,12.304,11.447c1.255,6.089-0.742,13.504-10.114,16.045    C313.619,360.037,311.764,360.28,309.94,360.28z"/>
		<path style="fill:#FCFCFC;" d="M291.39,214.905c-0.387,0-0.77-0.014-1.145-0.041c-6.735-0.463-12.297-4.831-13.222-10.389    c-1.155-6.925,3.34-12.748,8.35-14.377c3.881-1.262,9.191-0.291,12.448,6.224c0.289,0.58,0.055,1.283-0.525,1.574    c-0.582,0.291-1.283,0.053-1.574-0.525c-2.234-4.467-5.741-6.304-9.626-5.042c-4.066,1.322-7.706,6.082-6.76,11.761    c0.749,4.497,5.406,8.045,11.069,8.435c2.834,0.199,12.409-0.156,16.4-12.931c1.342-4.293,0.971-8.105-1.102-11.33    c-5.532-8.606-21.313-10.682-21.474-10.703c-0.641-0.08-1.097-0.667-1.017-1.31c0.082-0.646,0.678-1.104,1.31-1.017    c0.692,0.087,17.02,2.229,23.151,11.756c2.469,3.837,2.93,8.313,1.372,13.305C305.666,211.104,297.918,214.905,291.39,214.905z"/>
		<path style="fill:#FCFCFC;" d="M372.971,276.439c-3.253,0-6.151-1.539-8.201-4.488c-4.197-6.029-3.979-17.066,3.652-25.1    c3.601-3.794,7.514-5.592,11.699-5.415c7.44,0.357,12.78,7.074,13.002,7.358c0.399,0.511,0.309,1.246-0.199,1.647    c-0.509,0.394-1.246,0.312-1.647-0.199c-0.048-0.062-4.921-6.167-11.282-6.462c-3.443-0.204-6.765,1.416-9.873,4.689    c-6.806,7.163-7.085,16.885-3.427,22.143c2.376,3.416,6.089,4.371,10.171,2.616c3.906-1.672,6.199-4.517,6.455-8.004    c0.245-3.317-1.368-6.126-3.086-7.184c-1.003-0.621-1.988-0.641-2.925-0.08c-0.548,0.337-1.271,0.156-1.608-0.403    c-0.334-0.554-0.153-1.276,0.403-1.608c1.702-1.019,3.606-0.985,5.36,0.094c2.751,1.695,4.476,5.541,4.194,9.353    c-0.188,2.552-1.459,7.241-7.869,9.99C376.139,276.091,374.515,276.439,372.971,276.439z"/>
	</g>
	<path style="fill:#FCFCFC;" d="M231.541,477.634c-0.724,0-1.42-0.021-2.091-0.062c-0.646-0.039-1.139-0.593-1.1-1.242   c0.039-0.646,0.534-1.152,1.242-1.1c1.388,0.08,2.9,0.076,4.536-0.034c0.623-0.066,1.205,0.442,1.251,1.09   c0.044,0.646-0.444,1.205-1.09,1.251C233.332,477.604,232.416,477.634,231.541,477.634z M238.864,476.995   c-0.564,0-1.063-0.41-1.155-0.985c-0.105-0.639,0.33-1.242,0.969-1.345c0.891-0.144,1.812-0.314,2.763-0.509   c0.584-0.121,1.164-0.252,1.732-0.396c0.635-0.169,1.265,0.22,1.425,0.848c0.16,0.628-0.22,1.267-0.848,1.425   c-0.605,0.153-1.216,0.293-1.837,0.422c-0.983,0.202-1.936,0.376-2.859,0.525C238.99,476.99,238.929,476.995,238.864,476.995z    M224.893,476.869c-0.096,0-0.197-0.011-0.296-0.039c-1.736-0.451-3.294-1.095-4.634-1.915c-0.552-0.339-0.726-1.061-0.389-1.613   c0.341-0.557,1.065-0.728,1.613-0.389c1.143,0.701,2.49,1.255,4.002,1.647c0.628,0.165,1.003,0.804,0.838,1.432   C225.892,476.518,225.415,476.869,224.893,476.869z M247.945,474.697c-0.479,0-0.928-0.296-1.102-0.77   c-0.222-0.609,0.092-1.283,0.699-1.505c1.439-0.525,2.852-1.127,4.199-1.789c0.584-0.282,1.285-0.044,1.571,0.536   c0.284,0.582,0.044,1.285-0.536,1.571c-1.423,0.696-2.912,1.331-4.428,1.885C248.215,474.674,248.078,474.697,247.945,474.697z    M201.845,472.672c-0.002,0-0.005,0-0.007,0c-1.562-0.009-3.182-0.121-4.82-0.332c-0.641-0.082-1.095-0.671-1.013-1.315   c0.085-0.641,0.655-1.097,1.315-1.013c1.539,0.199,3.065,0.305,4.531,0.314c0.648,0.005,1.171,0.531,1.166,1.18   C203.014,472.152,202.489,472.672,201.845,472.672z M206.521,472.376c-0.575,0-1.079-0.426-1.159-1.013   c-0.089-0.644,0.36-1.235,1.001-1.322c1.514-0.208,2.989-0.534,4.385-0.971c0.628-0.192,1.278,0.153,1.471,0.77   c0.192,0.618-0.151,1.276-0.77,1.471c-1.521,0.474-3.125,0.829-4.765,1.054C206.629,472.372,206.576,472.376,206.521,472.376z    M217.157,471.925c-0.369,0-0.733-0.174-0.96-0.499c-0.422-0.602-0.786-1.237-1.088-1.904c-0.298-0.082-0.566-0.284-0.724-0.58   c-0.215-0.403-0.17-0.875,0.076-1.226c-0.094-0.344-0.174-0.694-0.241-1.049c-0.117-0.637,0.305-1.248,0.942-1.368   c0.646-0.103,1.248,0.307,1.368,0.941c0.007,0.041,0.014,0.08,0.021,0.119c0.706-0.46,1.374-0.955,2.002-1.482   c0.497-0.419,1.237-0.353,1.652,0.144c0.417,0.495,0.353,1.235-0.144,1.652c-0.857,0.719-1.782,1.386-2.76,1.991   c0.231,0.495,0.504,0.967,0.818,1.413c0.373,0.531,0.243,1.262-0.286,1.633C217.627,471.856,217.391,471.925,217.157,471.925z    M192.559,471.506c-0.087,0-0.176-0.009-0.263-0.03c-1.491-0.346-3.042-0.781-4.616-1.294c-0.616-0.202-0.953-0.864-0.751-1.48   c0.204-0.616,0.866-0.948,1.48-0.751c1.507,0.495,2.994,0.909,4.414,1.239c0.632,0.147,1.026,0.777,0.88,1.407   C193.576,471.139,193.092,471.506,192.559,471.506z M313.067,470.732c-1.608,0-3.209-0.062-4.776-0.186   c-0.646-0.05-1.127-0.614-1.077-1.26c0.05-0.646,0.618-1.118,1.26-1.077c1.505,0.117,3.047,0.176,4.582,0.176   c0.648,0,1.177,0.525,1.177,1.173S313.715,470.732,313.067,470.732z M256.352,470.583c-0.389,0-0.772-0.195-0.994-0.55   c-0.344-0.55-0.179-1.274,0.371-1.617c1.267-0.795,2.527-1.677,3.741-2.625c0.513-0.399,1.246-0.307,1.647,0.204   c0.399,0.511,0.307,1.248-0.204,1.647c-1.278,0.996-2.602,1.927-3.938,2.763C256.781,470.525,256.565,470.583,256.352,470.583z    M317.754,470.555c-0.607,0-1.12-0.47-1.168-1.086c-0.048-0.646,0.438-1.207,1.084-1.258c1.521-0.112,3.063-0.284,4.579-0.506   c0.63-0.078,1.235,0.348,1.331,0.992c0.094,0.641-0.35,1.237-0.992,1.331c-1.571,0.229-3.168,0.405-4.744,0.525   C317.814,470.555,317.784,470.555,317.754,470.555z M303.73,469.999c-0.064,0-0.126-0.005-0.19-0.016   c-1.578-0.254-3.154-0.575-4.687-0.955c-0.63-0.156-1.013-0.793-0.857-1.42c0.156-0.628,0.786-1.008,1.42-0.857   c1.471,0.364,2.983,0.673,4.499,0.919c0.639,0.103,1.074,0.706,0.969,1.345C304.793,469.589,304.294,469.999,303.73,469.999z    M327.029,469.211c-0.541,0-1.029-0.378-1.145-0.928c-0.135-0.635,0.27-1.258,0.903-1.393c1.473-0.314,2.969-0.68,4.485-1.102   c0.625-0.183,1.269,0.19,1.443,0.816c0.174,0.623-0.19,1.269-0.816,1.443c-1.562,0.435-3.104,0.816-4.623,1.139   C327.194,469.201,327.112,469.211,327.029,469.211z M183.636,468.633c-0.144,0-0.291-0.027-0.433-0.082   c-1.519-0.602-2.976-1.226-4.366-1.865c-0.589-0.268-0.848-0.964-0.577-1.553c0.27-0.591,0.967-0.848,1.553-0.577   c1.358,0.621,2.774,1.226,4.256,1.814c0.602,0.238,0.896,0.921,0.657,1.523C184.543,468.354,184.103,468.633,183.636,468.633z    M294.638,467.738c-0.126,0-0.254-0.021-0.38-0.064c-1.512-0.515-3.012-1.102-4.46-1.739c-0.593-0.261-0.864-0.955-0.602-1.546   c0.263-0.593,0.955-0.859,1.546-0.602c1.388,0.612,2.827,1.173,4.277,1.67c0.612,0.208,0.939,0.875,0.728,1.489   C295.582,467.431,295.126,467.738,294.638,467.738z M336.069,466.702c-0.488,0-0.944-0.307-1.111-0.795   c-0.208-0.614,0.119-1.281,0.733-1.489c1.429-0.486,2.875-1.022,4.339-1.608c0.6-0.238,1.285,0.048,1.526,0.651   c0.241,0.602-0.05,1.285-0.651,1.526c-1.505,0.605-2.992,1.155-4.458,1.654C336.321,466.682,336.195,466.702,336.069,466.702z    M263.733,464.815c-0.307,0-0.616-0.121-0.845-0.36c-0.449-0.467-0.435-1.21,0.032-1.659c1.086-1.042,2.142-2.162,3.141-3.331   c0.422-0.49,1.161-0.55,1.654-0.128c0.492,0.421,0.55,1.161,0.128,1.654c-1.047,1.226-2.158,2.401-3.296,3.496   C264.317,464.707,264.026,464.815,263.733,464.815z M175.121,464.716c-0.186,0-0.376-0.044-0.55-0.137   c-1.455-0.772-2.831-1.565-4.133-2.366c-0.552-0.341-0.722-1.063-0.383-1.615c0.341-0.552,1.065-0.715,1.615-0.383   c1.26,0.779,2.591,1.544,4,2.293c0.573,0.302,0.79,1.013,0.486,1.585C175.946,464.489,175.54,464.716,175.121,464.716z    M286.064,463.953c-0.192,0-0.385-0.046-0.566-0.144c-1.397-0.77-2.774-1.608-4.091-2.492c-0.538-0.36-0.683-1.088-0.321-1.626   c0.364-0.541,1.1-0.678,1.626-0.321c1.262,0.845,2.579,1.647,3.917,2.382c0.568,0.314,0.774,1.026,0.463,1.594   C286.877,463.733,286.476,463.953,286.064,463.953z M222.524,463.555c-0.245,0-0.49-0.076-0.699-0.231   c-0.52-0.387-0.63-1.12-0.243-1.64c0.925-1.246,1.626-2.556,2.03-3.787c0.202-0.616,0.864-0.951,1.48-0.751   c0.616,0.202,0.953,0.866,0.751,1.48c-0.481,1.468-1.303,3.01-2.378,4.456C223.237,463.392,222.882,463.555,222.524,463.555z    M344.776,463.225c-0.444,0-0.871-0.254-1.068-0.685c-0.268-0.589-0.009-1.285,0.58-1.555c1.377-0.63,2.77-1.303,4.176-2.025   c0.57-0.289,1.283-0.066,1.578,0.511c0.296,0.575,0.066,1.283-0.511,1.578c-1.439,0.735-2.859,1.427-4.268,2.071   C345.106,463.19,344.941,463.225,344.776,463.225z M215.395,462.961c-0.071,0-0.142-0.007-0.215-0.018   c-0.637-0.119-1.058-0.731-0.942-1.368c0.312-1.684,0.916-3.328,1.752-4.76c0.325-0.561,1.045-0.754,1.604-0.422   c0.559,0.325,0.749,1.045,0.422,1.604c-0.701,1.2-1.207,2.584-1.468,4.004C216.442,462.565,215.95,462.961,215.395,462.961z    M167.159,459.786c-0.241,0-0.481-0.073-0.687-0.222c-1.319-0.955-2.584-1.947-3.761-2.948c-0.495-0.419-0.554-1.159-0.135-1.652   c0.419-0.497,1.161-0.554,1.652-0.135c1.134,0.96,2.35,1.915,3.619,2.834c0.525,0.38,0.644,1.113,0.263,1.638   C167.878,459.619,167.52,459.786,167.159,459.786z M278.282,458.733c-0.259,0-0.52-0.085-0.738-0.261   c-1.239-1.001-2.449-2.071-3.59-3.182c-0.465-0.451-0.474-1.193-0.023-1.659c0.454-0.463,1.196-0.474,1.659-0.023   c1.09,1.061,2.243,2.082,3.429,3.04c0.504,0.405,0.582,1.143,0.174,1.649C278.962,458.584,278.623,458.733,278.282,458.733z    M269.81,457.686c-0.231,0-0.465-0.069-0.669-0.208c-0.531-0.371-0.664-1.102-0.296-1.633c0.838-1.207,1.62-2.46,2.318-3.723   c-0.186-0.066-0.355-0.183-0.493-0.344c-1.051-1.244-2.032-2.534-2.914-3.835c-0.362-0.536-0.222-1.264,0.314-1.629   c0.534-0.367,1.264-0.224,1.629,0.314c0.834,1.232,1.764,2.453,2.763,3.633c0.279,0.332,0.346,0.774,0.208,1.157   c0.06,0.021,0.117,0.046,0.174,0.078c0.568,0.312,0.777,1.024,0.465,1.592c-0.763,1.39-1.615,2.767-2.536,4.094   C270.546,457.509,270.182,457.686,269.81,457.686z M220.167,455.177c-0.392,0-0.777-0.197-0.999-0.557   c-0.339-0.55-0.17-1.274,0.383-1.615c0.676-0.417,1.384-0.719,2.103-0.9c1.473-0.376,2.863-0.073,3.718,0.875   c0.435,0.481,0.396,1.223-0.085,1.656c-0.483,0.435-1.223,0.394-1.656-0.085c-0.149-0.167-0.648-0.369-1.402-0.172   c-0.49,0.124-0.976,0.332-1.445,0.623C220.591,455.12,220.378,455.177,220.167,455.177z M160.027,453.709   c-0.302,0-0.605-0.117-0.834-0.348c-1.141-1.155-2.222-2.355-3.212-3.567c-0.408-0.502-0.334-1.242,0.167-1.652   c0.499-0.405,1.237-0.334,1.652,0.167c0.941,1.157,1.972,2.3,3.06,3.402c0.456,0.46,0.451,1.203-0.009,1.659   C160.623,453.597,160.325,453.709,160.027,453.709z M274.312,449.469c-0.149,0-0.3-0.027-0.447-0.089   c-0.598-0.245-0.884-0.93-0.637-1.53c0.596-1.45,1.084-2.896,1.452-4.295c0.163-0.628,0.799-1.008,1.432-0.836   c0.625,0.165,1.001,0.804,0.836,1.432c-0.394,1.5-0.916,3.044-1.553,4.593C275.21,449.196,274.772,449.469,274.312,449.469z    M154.117,446.447c-0.38,0-0.756-0.186-0.98-0.529c-0.891-1.358-1.704-2.765-2.414-4.178c-0.291-0.58-0.06-1.283,0.52-1.574   c0.575-0.296,1.285-0.062,1.574,0.52c0.671,1.333,1.439,2.662,2.282,3.945c0.355,0.541,0.204,1.269-0.337,1.624   C154.562,446.385,154.339,446.447,154.117,446.447z M266.351,444.422c-0.428,0-0.841-0.236-1.047-0.646   c-0.783-1.555-1.397-3.083-1.828-4.545c-0.183-0.623,0.172-1.274,0.793-1.457c0.63-0.179,1.274,0.172,1.457,0.793   c0.392,1.329,0.953,2.726,1.672,4.155c0.291,0.58,0.06,1.283-0.52,1.574C266.709,444.383,266.53,444.422,266.351,444.422z    M276.63,440.411c-0.032,0-0.064-0.002-0.096-0.005c-0.646-0.05-1.127-0.616-1.074-1.262c0.041-0.513,0.06-1.013,0.062-1.496   c0-1.022-0.094-1.977-0.277-2.836c-0.135-0.635,0.27-1.258,0.903-1.393c0.628-0.119,1.255,0.27,1.393,0.903   c0.218,1.019,0.328,2.14,0.328,3.331c-0.002,0.548-0.025,1.106-0.071,1.679C277.748,439.946,277.235,440.411,276.63,440.411z    M149.934,438.07c-0.486,0-0.939-0.302-1.109-0.788c-1.008-2.9-1.2-4.746-1.207-4.822c-0.064-0.644,0.403-1.216,1.047-1.283   c0.635-0.076,1.219,0.401,1.285,1.047c0.002,0.016,0.183,1.675,1.093,4.288c0.211,0.612-0.112,1.281-0.724,1.494   C150.193,438.049,150.062,438.07,149.934,438.07z M263.928,435.447c-0.014,0-0.03,0-0.044,0c-0.648-0.025-1.152-0.57-1.129-1.216   c0.082-2.165,0.809-3.915,2.096-5.063c0.483-0.433,1.223-0.387,1.656,0.094c0.431,0.483,0.389,1.226-0.094,1.656   c-0.813,0.724-1.255,1.869-1.313,3.4C265.075,434.95,264.555,435.447,263.928,435.447z M274.284,431.626   c-0.293,0-0.586-0.11-0.813-0.328c-0.884-0.852-2.057-1.308-3.482-1.356c-0.648-0.023-1.155-0.566-1.134-1.212   c0.023-0.635,0.543-1.134,1.173-1.134c0.011,0,0.025,0,0.039,0c2.023,0.069,3.716,0.745,5.031,2.011   c0.467,0.449,0.481,1.193,0.032,1.659C274.898,431.507,274.591,431.626,274.284,431.626z"/>
	<path style="fill:#FCFCFC;" d="M292.883,104.079c-0.765-0.002-1.539-0.014-2.33-0.037c-0.648-0.021-1.157-0.559-1.139-1.207   c0.018-0.648,0.559-1.159,1.207-1.139c1.59,0.048,3.129,0.048,4.614-0.002c0.014,0,0.027,0,0.039,0c0.63,0,1.152,0.499,1.173,1.134   c0.021,0.648-0.488,1.191-1.134,1.212C294.519,104.065,293.71,104.079,292.883,104.079z M285.905,103.779   c-0.032,0-0.064-0.002-0.096-0.005l-1.065-0.094c-1.244-0.119-2.465-0.257-3.654-0.41c-0.644-0.085-1.095-0.673-1.013-1.315   c0.085-0.644,0.683-1.1,1.315-1.013c1.161,0.153,2.355,0.286,3.576,0.401l1.029,0.094c0.644,0.05,1.127,0.616,1.074,1.262   C287.023,103.314,286.51,103.779,285.905,103.779z M299.948,103.726c-0.591,0-1.102-0.449-1.164-1.051   c-0.069-0.644,0.399-1.221,1.045-1.287c1.537-0.163,3.065-0.383,4.543-0.657c0.623-0.119,1.248,0.298,1.368,0.937   c0.119,0.637-0.3,1.251-0.937,1.368c-1.539,0.286-3.129,0.518-4.73,0.685C300.03,103.724,299.989,103.726,299.948,103.726z    M276.609,102.554c-0.071,0-0.144-0.007-0.215-0.021c-1.615-0.298-3.166-0.632-4.65-0.996c-0.63-0.153-1.015-0.79-0.859-1.418   c0.154-0.63,0.788-1.013,1.418-0.859c1.443,0.355,2.948,0.676,4.517,0.969c0.637,0.117,1.058,0.728,0.939,1.365   C277.656,102.16,277.162,102.554,276.609,102.554z M309.148,101.969c-0.509,0-0.978-0.334-1.127-0.848   c-0.179-0.621,0.179-1.271,0.802-1.452c1.487-0.431,2.934-0.935,4.3-1.5c0.602-0.247,1.283,0.039,1.533,0.635   c0.247,0.598-0.037,1.285-0.635,1.533c-1.445,0.598-2.976,1.132-4.547,1.588C309.365,101.956,309.255,101.969,309.148,101.969z    M222.059,101.761c-0.018,0-0.039,0-0.06-0.002c-1.645-0.082-3.26-0.261-4.797-0.534c-0.637-0.112-1.063-0.722-0.951-1.358   c0.112-0.639,0.733-1.079,1.358-0.951c1.443,0.254,2.96,0.424,4.508,0.502c0.646,0.032,1.145,0.582,1.111,1.23   C223.2,101.273,222.68,101.761,222.059,101.761z M226.748,101.745c-0.619,0-1.134-0.481-1.171-1.104   c-0.039-0.648,0.456-1.203,1.102-1.239c1.519-0.089,3.024-0.286,4.474-0.586c0.625-0.147,1.253,0.273,1.386,0.909   c0.133,0.635-0.275,1.255-0.909,1.386c-1.562,0.325-3.182,0.538-4.813,0.632C226.794,101.745,226.771,101.745,226.748,101.745z    M267.511,100.299c-0.119,0-0.238-0.018-0.357-0.055c-1.558-0.499-3.07-1.051-4.495-1.638c-0.598-0.245-0.884-0.93-0.637-1.53   c0.245-0.6,0.935-0.887,1.53-0.637c1.368,0.561,2.82,1.09,4.316,1.569c0.618,0.199,0.958,0.859,0.761,1.475   C268.468,99.983,268.008,100.299,267.511,100.299z M212.869,100.114c-0.121,0-0.245-0.018-0.367-0.06   c-1.553-0.511-3.063-1.141-4.49-1.876c-0.577-0.296-0.804-1.003-0.506-1.578c0.298-0.58,1.006-0.804,1.578-0.506   c1.319,0.678,2.715,1.26,4.151,1.734c0.616,0.202,0.951,0.864,0.747,1.48C213.819,99.8,213.361,100.114,212.869,100.114z    M235.889,99.828c-0.474,0-0.919-0.289-1.097-0.758c-0.229-0.605,0.076-1.283,0.683-1.512c1.402-0.531,2.77-1.177,4.062-1.924   c0.561-0.323,1.278-0.131,1.601,0.431c0.325,0.561,0.133,1.278-0.428,1.601c-1.402,0.809-2.884,1.512-4.405,2.087   C236.168,99.802,236.026,99.828,235.889,99.828z M348.162,99.578c-0.637,0-1.159-0.511-1.173-1.15   c-0.014-0.646,0.502-1.182,1.15-1.196c1.466-0.03,3.012-0.121,4.593-0.275c0.639-0.027,1.219,0.41,1.281,1.056   c0.062,0.644-0.41,1.216-1.056,1.281c-1.64,0.158-3.246,0.254-4.772,0.284C348.178,99.578,348.169,99.578,348.162,99.578z    M343.477,99.45c-0.032,0-0.062,0-0.092-0.005c-1.665-0.128-3.276-0.35-4.788-0.66c-0.635-0.131-1.042-0.751-0.914-1.386   c0.131-0.637,0.756-1.042,1.386-0.914c1.416,0.291,2.928,0.502,4.495,0.623c0.646,0.048,1.129,0.614,1.079,1.258   C344.597,98.982,344.082,99.45,343.477,99.45z M357.492,98.694c-0.566,0-1.063-0.41-1.157-0.987   c-0.101-0.641,0.334-1.242,0.974-1.345l0.545-0.089c1.445-0.243,2.74-0.499,3.981-0.783c0.637-0.156,1.262,0.252,1.404,0.882   c0.144,0.632-0.25,1.26-0.882,1.404c-1.283,0.293-2.623,0.559-4.02,0.795l-0.657,0.11   C357.616,98.689,357.554,98.694,357.492,98.694z M317.784,98.373c-0.408,0-0.804-0.213-1.019-0.593   c-0.321-0.561-0.124-1.278,0.44-1.599c1.333-0.758,2.6-1.601,3.761-2.504c0.513-0.394,1.251-0.307,1.647,0.208   c0.396,0.513,0.302,1.248-0.208,1.647c-1.251,0.969-2.609,1.872-4.041,2.687C318.18,98.322,317.981,98.373,317.784,98.373z    M334.332,97.518c-0.14,0-0.279-0.025-0.417-0.076c-1.59-0.605-3.072-1.342-4.403-2.195c-0.545-0.348-0.706-1.074-0.355-1.62   c0.348-0.547,1.074-0.706,1.62-0.355c1.196,0.763,2.531,1.429,3.972,1.975c0.605,0.231,0.909,0.907,0.68,1.514   C335.251,97.23,334.804,97.518,334.332,97.518z M258.856,96.719c-0.186,0-0.371-0.044-0.545-0.135   c-1.459-0.765-2.85-1.594-4.139-2.465c-0.536-0.362-0.678-1.09-0.314-1.629c0.367-0.536,1.095-0.676,1.629-0.314   c1.216,0.82,2.534,1.606,3.915,2.332c0.573,0.3,0.795,1.01,0.493,1.583C259.685,96.49,259.277,96.719,258.856,96.719z    M366.623,96.588c-0.499,0-0.962-0.321-1.12-0.822c-0.192-0.619,0.151-1.276,0.77-1.471c1.517-0.474,2.962-1.001,4.295-1.567   c0.593-0.254,1.283,0.025,1.537,0.621s-0.025,1.285-0.621,1.537c-1.402,0.596-2.921,1.15-4.511,1.649   C366.857,96.572,366.738,96.588,366.623,96.588z M204.578,95.828c-0.245,0-0.49-0.076-0.701-0.231   c-1.29-0.962-2.522-2.046-3.658-3.223c-0.451-0.467-0.438-1.21,0.027-1.659c0.472-0.449,1.214-0.438,1.659,0.027   c1.049,1.086,2.185,2.087,3.374,2.971c0.52,0.387,0.628,1.122,0.241,1.642C205.288,95.665,204.936,95.828,204.578,95.828z    M243.984,95.175c-0.341,0-0.683-0.149-0.914-0.438c-0.405-0.504-0.325-1.242,0.179-1.649c1.159-0.932,2.263-1.972,3.287-3.086   c0.44-0.476,1.184-0.506,1.656-0.071c0.476,0.438,0.509,1.18,0.071,1.656c-1.102,1.2-2.293,2.321-3.544,3.328   C244.504,95.09,244.243,95.175,243.984,95.175z M375.232,92.921c-0.408,0-0.804-0.213-1.019-0.593   c-0.321-0.564-0.124-1.278,0.44-1.599c1.342-0.765,2.609-1.604,3.766-2.497c0.506-0.396,1.244-0.307,1.645,0.211   c0.396,0.513,0.302,1.248-0.211,1.645c-1.244,0.96-2.602,1.862-4.041,2.68C375.628,92.87,375.429,92.921,375.232,92.921z    M325.165,92.641c-0.291,0-0.582-0.108-0.809-0.323c-0.47-0.447-0.488-1.189-0.041-1.659c0.03-0.03,0.06-0.062,0.089-0.094   c-0.609-0.811-1.148-1.668-1.606-2.561c-0.298-0.575-0.071-1.283,0.506-1.578s1.281-0.071,1.578,0.506   c0.323,0.623,0.687,1.228,1.095,1.807c0.405-0.515,0.79-1.042,1.15-1.578c0.364-0.538,1.095-0.676,1.629-0.318   c0.536,0.362,0.68,1.09,0.318,1.629c-0.488,0.726-1.017,1.436-1.583,2.128c0.339,0.472,0.284,1.134-0.151,1.542   c-0.38,0.353-0.93,0.41-1.365,0.172C325.751,92.531,325.458,92.641,325.165,92.641z M251.12,91.455   c-0.277,0-0.557-0.099-0.779-0.298c-1.251-1.111-2.389-2.288-3.383-3.498c-0.41-0.499-0.339-1.239,0.163-1.652   c0.497-0.408,1.237-0.339,1.652,0.163c0.147,0.179,0.296,0.357,0.451,0.534c0.032-0.085,0.076-0.167,0.128-0.245   c0.854-1.242,1.629-2.554,2.302-3.899c0.291-0.58,1.003-0.811,1.574-0.525c0.58,0.291,0.813,0.994,0.525,1.574   c-0.722,1.441-1.553,2.847-2.467,4.178c-0.156,0.227-0.378,0.383-0.621,0.456c0.396,0.394,0.809,0.783,1.235,1.164   c0.486,0.431,0.527,1.171,0.096,1.654C251.764,91.322,251.443,91.455,251.12,91.455z M198.073,89.12   c-0.367,0-0.728-0.172-0.958-0.495c-0.921-1.299-1.771-2.694-2.524-4.146c-0.3-0.575-0.076-1.283,0.499-1.581   c0.568-0.305,1.283-0.078,1.581,0.499c0.706,1.356,1.498,2.66,2.36,3.871c0.373,0.527,0.25,1.26-0.279,1.636   C198.544,89.049,198.308,89.12,198.073,89.12z M382.597,87.18c-0.286,0-0.573-0.103-0.797-0.314   c-0.476-0.44-0.504-1.182-0.062-1.656c1.017-1.097,1.94-2.286,2.74-3.537c0.348-0.547,1.074-0.703,1.62-0.355   c0.545,0.348,0.706,1.074,0.355,1.62c-0.875,1.368-1.883,2.669-2.996,3.867C383.224,87.054,382.911,87.18,382.597,87.18z    M330.376,84.896c-0.16,0-0.321-0.032-0.476-0.101c-0.591-0.263-0.859-0.955-0.596-1.549c0.623-1.4,1.095-2.822,1.407-4.222   c0.14-0.632,0.761-1.022,1.4-0.891c0.632,0.142,1.031,0.767,0.891,1.4c-0.346,1.553-0.868,3.122-1.553,4.666   C331.254,84.637,330.825,84.896,330.376,84.896z M322.301,84.225c-0.547,0-1.038-0.387-1.148-0.944   c-0.224-1.134-0.339-2.288-0.339-3.436c0-0.531,0.025-1.054,0.071-1.567c0.06-0.646,0.673-1.109,1.274-1.063   c0.646,0.06,1.12,0.63,1.063,1.274c-0.041,0.444-0.062,0.898-0.062,1.356c0,0.994,0.099,1.995,0.293,2.978   c0.126,0.637-0.286,1.253-0.921,1.379C322.455,84.218,322.377,84.225,322.301,84.225z M245.23,84.218   c-0.412,0-0.816-0.22-1.029-0.609c-0.813-1.482-1.45-3.019-1.892-4.563c-0.179-0.623,0.181-1.274,0.804-1.45   c0.63-0.192,1.271,0.181,1.45,0.804c0.394,1.377,0.964,2.751,1.695,4.082c0.312,0.568,0.103,1.281-0.465,1.592   C245.615,84.172,245.423,84.218,245.23,84.218z M193.741,80.812c-0.479,0-0.93-0.296-1.102-0.772   c-1.003-2.758-1.326-4.657-1.34-4.737c-0.108-0.637,0.325-1.242,0.962-1.349c0.632-0.085,1.244,0.321,1.352,0.962   c0.002,0.018,0.307,1.782,1.23,4.323c0.222,0.609-0.092,1.283-0.701,1.503C194.009,80.789,193.874,80.812,193.741,80.812z    M254.506,79.928c-0.124,0-0.247-0.018-0.371-0.06c-0.614-0.206-0.946-0.87-0.742-1.484c0.493-1.473,0.857-2.941,1.079-4.364   c0.101-0.641,0.717-1.072,1.342-0.976c0.639,0.101,1.077,0.701,0.976,1.342c-0.245,1.549-0.639,3.143-1.171,4.74   C255.454,79.618,254.996,79.928,254.506,79.928z M387.616,79.323c-0.149,0-0.298-0.027-0.442-0.087   c-0.6-0.245-0.889-0.93-0.644-1.528c0.554-1.363,1.003-2.804,1.333-4.286c0.14-0.632,0.765-1.024,1.4-0.891   c0.632,0.142,1.031,0.767,0.891,1.4c-0.36,1.61-0.848,3.18-1.452,4.662C388.516,79.048,388.079,79.323,387.616,79.323z    M332.291,75.79c-0.618,0-1.136-0.483-1.171-1.106c-0.11-1.954-0.662-3.051-1.141-3.427c-0.511-0.401-0.598-1.139-0.199-1.647   c0.403-0.511,1.138-0.591,1.647-0.199c1.177,0.925,1.901,2.751,2.034,5.141c0.037,0.648-0.458,1.2-1.104,1.237   C332.335,75.79,332.312,75.79,332.291,75.79z M242.752,75.22c-0.648,0-1.173-0.474-1.173-1.122c0-1.846,0.273-3.496,0.811-4.998   c0.22-0.609,0.889-0.925,1.498-0.71c0.612,0.218,0.928,0.889,0.71,1.498c-0.447,1.251-0.673,2.634-0.673,4.11   C243.925,74.645,243.4,75.22,242.752,75.22z M323.234,75.037c-0.167,0-0.337-0.034-0.497-0.11c-0.586-0.275-0.841-0.974-0.566-1.56   c0.861-1.835,2.066-3.228,3.491-4.029c0.554-0.318,1.276-0.121,1.597,0.447c0.318,0.564,0.119,1.278-0.447,1.597   c-0.994,0.561-1.865,1.592-2.515,2.98C324.097,74.787,323.673,75.037,323.234,75.037z M255.825,70.698   c-0.598,0-1.109-0.456-1.166-1.063c-0.151-1.615-0.582-2.918-1.248-3.768c-0.399-0.511-0.309-1.248,0.199-1.647   c0.509-0.396,1.248-0.312,1.647,0.199c0.958,1.226,1.542,2.905,1.739,4.996c0.06,0.646-0.415,1.216-1.058,1.278   C255.899,70.696,255.862,70.698,255.825,70.698z M389.689,70.21c-0.03,0-0.06,0-0.087-0.002c-0.646-0.048-1.132-0.609-1.086-1.255   c0.062-0.848,0.092-1.684,0.089-2.508c0-0.692-0.021-1.37-0.055-2.034c-0.034-0.646,0.46-1.198,1.109-1.232   c0.66-0.076,1.2,0.463,1.232,1.109c0.039,0.706,0.06,1.425,0.06,2.156c0.002,0.877-0.027,1.773-0.094,2.68   C390.812,69.74,390.296,70.21,389.689,70.21z M246.007,66.756c-0.316,0-0.63-0.126-0.861-0.376c-0.44-0.476-0.41-1.219,0.064-1.659   c1.248-1.152,2.719-1.904,4.371-2.234l0.424-0.071c0.621-0.082,1.235,0.36,1.322,1.001c0.089,0.644-0.36,1.235-1.001,1.322   l-0.293,0.05c-1.214,0.241-2.305,0.799-3.228,1.654C246.577,66.653,246.291,66.756,246.007,66.756z M389.203,60.859   c-0.564,0-1.061-0.408-1.155-0.98c-0.25-1.51-0.577-3.012-0.976-4.467c-0.17-0.625,0.197-1.269,0.822-1.441   c0.632-0.167,1.271,0.199,1.441,0.822c0.419,1.533,0.765,3.113,1.026,4.701c0.105,0.639-0.325,1.244-0.964,1.349   C389.332,60.855,389.268,60.859,389.203,60.859z"/>
</g>















</svg>