<svg id="Layer_1" enable-background="new 0 0 68 68" height="512" viewBox="0 0 68 68" width="512" xmlns="http://www.w3.org/2000/svg"><g id="_x34_"><g><g><g><path d="m14 48.9c-2.1 4.9-4.6 9.7-7.6 14.2-.4.7 0 1.5.8 1.6 1.3.1 2.5.3 3.7.5.6.1 1.1-.2 1.3-.8 1.9-6.1 3.9-11.8 6.9-17.5 1.5-.3.3 8.6-.1 14.1 0 .7.6 1.4 1.4 1.3.8 0 1.7-.1 2.5-.1s1.4-.6 1.3-1.3c-.3-5-1.6-14.7.3-13.8 2.1 5.1 1.6 11.9 3.4 17.2.2.5.7.8 1.2.8 1.1 0 2.4-.1 3.6-.2.8 0 1.4-.8 1.1-1.6-2.1-5.3-3.7-10.9-5.5-16.3" fill="#f2961c"/></g></g><g><g><path d="m16.5 7.3c-.1-.8-.3-2.3-.4-3.5-.1-.8.6-1.4 1.4-1.4 2.5.2 5 .4 7.5.6.8.1 1.4.8 1.2 1.6-.6 1.7-.7 3.9-.8 5.3" fill="#f2961c"/></g></g><g><g><path d="m38.4 46.9c-11.5.9-23.7-.3-35.2-1.6.8-12.9.8-26.2.4-39 12-.5 24.2 0 35.7 1.3-.7 13.1-1.3 26.2-.9 39.3z" fill="#dcf1ff"/></g></g><g><g><path d="m38.4 46.9c-11.5.9-23.7-.3-35.2-1.6.1-2.3.3-4.7.4-7 13.2-6.3 21.9-18.3 28-31.5 2.6.2 5.2.4 7.7.7-.7 13.2-1.3 26.3-.9 39.4z" fill="#c5eaff"/></g></g><g><g><path d="m40.5 45.3c-.2 1.2-.6 2.8-.8 3.9-.1.4-.4.7-.8.7-12.1.4-24.2-.1-36.3-1.1-.5 0-.8-.4-.7-.9.2-1.1.3-2.3.2-3.5-.1-.5.4-.9 1-.8 5.5.9 9.7.7 29.4.8h7.2c.4 0 .8.4.8.9z" fill="#ffb55c"/></g></g><g><g><path d="m40.5 45.3c-.2 1.2-.6 2.8-.8 3.9-.1.4-.4.7-.8.7-12.1.4-24.2-.1-36.3-1.1-.5 0-.8-.4-.7-.9 0-.1 0-.2 0-.3 3 1.5 7.2 1 10.4.8 6.7-.6 13.5-1.9 20.1-4h7.2c.5 0 .9.4.9.9z" fill="#fca929"/></g></g></g><g><g><g><g><g><g><g><path d="m63.5 55.5c-8.1-3.5-13.8-9-20.3-15-1.6-1.5-3.5-3.1-4.2-5.2-.9-2.8.6-4.8 2.6-5.2 1.9-.4 3.2.9 4.6 2 3.3 2.5 5.5 5.5 10.2 11 2.9 3.3 5.8 6.6 8.7 9.9 1.6 2 .6 3.5-1.6 2.5z" fill="#5762ef"/></g></g><g><g><g><path d="m40.7 29.8c.1.1.2.2.3.3.1.5-.8 2.1-2.3 2.7-.3.1-.5-.2-.7-.4-.1-.2-.2-.4-.1-.7s.2-.4 1.5-1.7c.4-.3.8-.5 1.3-.2z" fill="#ffd55f"/></g></g><g><g><path d="m40 29.5c-.1.6-.2.9-.4 1.2v.1c-.1.1-.1.2-.2.3-.1 0-.1.1-.1.1s-.1.1-.1.1c-.6.4-.6.4-.9.5h-.1c-1.7.4-3.6.3-5.2-.5-3.6-1.7-1.4-5-2.1-7.8-.2-1.2-.9-2.4-2-2.8 2 .3 4.3-.5 6.2-.2 3.1.5 5.8 4 4.9 9z" fill="#ffaf45"/></g></g><g><g><path d="" fill="none"/></g></g><g><g><path d="m38.5 31.7c.1-.1 0-.2-.1-.3 0 0-.1 0-.3 0-1.7-.2-3.6-.1-5-1.6-1-1.1-1.2-2.6-1.4-4.3-.1-.3-.4-.2-.4.1.6 4.9 2.2 6 6.9 6.3z" fill="#f49416"/></g></g><g><g><path d="m39.3 31c-.1 0-.1.1-.2.1 0 0-.1.1-.1.1-.3-.1-.5-.2-.8-.4-4.2-1.7-4.2-3.8-5-5.8-1-2.4-2.1-1.9-1.9-2.4 0-.1.2-.2.3-.1 1.3.5 1.9 2 2.3 3.3.7 2.1 1.2 3.3 5 4.9.3.2.4.2.4.3z" fill="#f49416"/></g></g><g><g><path d="m39.8 30.4c-1.9-1.5-2-4.3-3.2-6.3-.7-1.3-1.8-2.2-2.9-2.4-.3-.1-.4.3-.1.4 1 .2 1.9 1 2.6 2.2 1.2 2.1 1.2 4.5 2.9 6.2 0 0 0 .1 0 0 .1.1.2.2.3.3.2-.2.3-.3.4-.4z" fill="#f49416"/></g></g><g><g><path d="m40 29.4c0 .1 0 .3-.1.6-.6-.8-.9-1.8-1-2.7-.3-1.9-.7-4.3-2.4-5.1-.1-.1-.1-.2-.1-.3.1-.1.2-.1.3-.1 2.8 1.5 1.9 5.4 3.3 7.6z" fill="#f49416"/></g></g><g><g><path d="m39.6 30.7c-.1 0-.3-.1-.4-.2-2.3-1.5-4-3.8-4.7-6.5 0-.1-.1-.2-.3-.2-.1 0-.2.1-.2.3.7 2.8 2.5 5.2 4.9 6.8.1.1.3.2.4.2s0 0 0-.1c.1-.1.2-.2.3-.3z" fill="#f49416"/></g></g><g><g><path d="m39.2 31.2s-.2.2-.4.3c-.8-.2-5.1-.5-6.3-3.5-.1-.2.3-.4.4-.1 1.3 3.1 6.1 2.9 6.3 3.3z" fill="#f49416"/></g></g></g></g><g><g><path d="m33.7 20.3c-.6 1.1-2 .7-2.5 1.9-.2.4-.3.9-.4 1.3-.2-1.2-.9-2.4-2-2.8 1.6.1 3.2-.3 4.9-.4z" fill="#ffd55f"/></g></g></g></g></g><g><g><g><path d="m39.5 36.5c1 1.8 2.8 3.2 5.3 5.5.6-.4 1.2-.9 1.8-1.4-2.5-1-4.8-2.2-7.1-4.1z" fill="#2946d3"/></g></g><g><g><path d="m65 53c-2.9-3.3-5.8-6.6-8.7-9.9-1.4-.1-3.2-.4-5.4-1-1 .9-2 1.9-3.1 2.7-1-.9-2-1.8-3-2.7 5.7 5.3 11.2 10.1 18.6 13.4 2.3 1 3.3-.5 1.6-2.5z" fill="#2946d3"/></g></g><g><g><path d="m44.8 42.1c.1.1.2.1 0 0z" fill="#fd625d"/></g></g><g><g><path d="m51 42.1c.8-.8 1.7-1.6 2.5-2.5-1-1.2-2-2.4-3-3.6-1.2 1.7-2.4 3.2-3.8 4.6 1.3.7 2.8 1.2 4.3 1.5z" fill="#fd625d"/></g></g><g><g><path d="m51 42.1c-1.5-.4-3-.9-4.4-1.5-.6.5-1.1 1-1.8 1.4 1 .9 2 1.9 3.1 2.8 1-.8 2.1-1.7 3.1-2.7z" fill="#fc4949"/></g></g></g></g><g><g><path d="m36.8 44.3c-20.8-.2-12.9-.1-33.7-.4-.7 0-.7-1 0-1l33.6.5c.3 0 .5.2.5.5.1.2-.1.4-.4.4z"/></g></g><g><g><path d="m5.9 65.1c-.3-.1-.5-.4-.3-.7 2.3-4.9 4.7-9.7 7.3-14.4.1-.2.4-.3.7-.2.2.1.3.4.2.7-2.4 4.5-4.8 9.2-7 13.8 1 .2 2.1.2 3.2.1.7-.1.8.9.1 1-.6 0-2.9.1-4.2-.3z"/></g></g><g><g><path d="m19.2 62.2c-.3 0-.5-.3-.4-.5l.9-9.3c0-.3.3-.5.5-.5.3 0 .5.3.4.5l-.9 9.3c.1.3-.1.5-.5.5z"/></g></g><g><g><path d="m28.6 65.3c-1.2-2.3-1.8-4.9-1.7-7.5 0-.3.3-.5.5-.5.3 0 .5.2.5.5-.1 2.4.5 4.9 1.6 7 .1.2 0 .5-.2.7-.3.1-.6 0-.7-.2z"/></g></g><g><g><path d="m7.5 6.5c-.3 0-.5-.2-.5-.5s.3-.5.5-.5c1.5.1 3.1.2 4.6.2 6 .3 12.2.7 17.8.3.3 0 .5.2.5.5s-.2.5-.5.5c-7 .5-15.1-.2-22.4-.5z"/></g></g><g><g><g><path d="m17.5 36.9c.1 1.7.6 2.1 2.3 1.9.4-.1.9-.2 1.1-.5.3-.5 0-1.1.2-1.6" fill="#15bcac"/></g></g><g><g><g><g><g><g><g><g><g><g><g><g><g><g><g><path d="m22.4 36.4c-.1.3-.5.5-.8.6-1.5.5-2.9.6-4.5.2-.4-.1-.8-.2-1-.5s-.3-.8 0-1c-.4-.3-.5-.8.1-1.1-.4-.2-.4-.9.1-1h.1c-.6-.3-.8-1.1-.6-1.7.5-.2 4-2.2 5.8-.8.2.1.4.3.6.5.1.1.2.2.2.3.1.2.2.4.3.6 0 .2 0 .5-.2.7-.1.1-.2.2-.3.3.4.3.4 1-.1 1.2.4.2.4.8 0 1 .2.1.3.4.3.6z" fill="#21cbbe"/></g></g><g><g><path d="m22.4 36.3c-2.9-.6-5.1-2.2-6.6-4.2 0-.1 0-.1.1-.2.1 0 .3-.1.4-.2 2.9.6 3.4.6 6.2.1.1.2.2.4.3.6 0 .2 0 .5-.2.7-.1.1-.2.2-.3.3.4.3.4 1-.1 1.2.4.2.4.8 0 1 .2.2.3.4.2.7z" fill="#15bcac"/></g></g><g><g><path d="m23.8 29.1c-.2 1.1.1 2.5-1.1 3.2-1.6 1.2-6.8 1.2-7.4-1.2-.1-.5-.1-.9-.2-1.6-.3-1.9-1.8-3.3-2.6-5-1.3-2.6-1.1-6.2.8-8.7 3.5-4.6 11.5-4 13.7 1.2.3.6.5 1.3.6 2 .2.7.1 2.3-.1 3.1-.6 3.7-3.2 4.5-3.7 7z" fill="#ffd55f"/></g></g><g><g><path d="m23.8 29.1c-.2 1.1.1 2.5-1.1 3.2-1.6 1.2-6.8 1.2-7.4-1.2-.3-1.3.2-1.8-1.5-4.5.5.2 1 .3 1.5.5 2.7.9 5.9-.2 7.2-2.8.9-1.8 1-3.9.4-5.7s-2-3.6-1.3-5.7c2.2.5 4.2 1.7 5.2 3.7.1.1.1.3.2.4.3.6.5 1.3.6 2 .2.7.1 2.3-.1 3.1-.6 3.7-3.2 4.5-3.7 7z" fill="#fcc11a"/></g></g></g></g></g></g></g></g><g><g><path d="m25.2 24.8c-.8.4-1.5-1-.7-1.3.4-.1.8 0 1 .3.2.4 0 .9-.3 1z" fill="#ffd55f"/></g></g></g></g><g><g><path d="" fill="#fa9990"/></g></g></g></g></g></g><g><g><path d="m26 21.8c0 .2-.1.4-.2.5s-.4.1-.5 0c-.2-.4.5-3.5-.7-5.8-.1-.2-.3-.5-.3-.7-.1-.3 0-.6.3-.7.9-.5 1.4 2.2 1.5 2.7.1 1.3.1 2.7-.1 4z" fill="#ffd55f"/></g></g></g></g><g><g><path d="m18.1 32.8c-.1 0-.2-.1-.2-.2-.4-4.4-1.5-8.7-3.3-12.7-.1-.3.3-.5.5-.2.5 1.1 1.8 1.1 1.7 1 .7 0 1.3-.4 1.6-1 0-.1.1-.1.2-.1.3 0 .2.6.7 1.1.2.2.5.3.8.2s.5-.6 1-.6.8.4 1 .5c.6.3 1.2-.4 1.6-.9.2-.2.5-.1.4.2-.7 3.9-1.5 7.9-2.4 11.8 0 .1-.2.2-.3.2-.6-.1.2-.7 2-11.2-.7.6-1.2.6-1.6.4-.1-.1-.2-.1-.4-.2-.4-.3-.5-.3-.8 0-.1.1-.3.2-.4.3-.5.2-1.3 0-1.8-1-.6.8-1.9 1.1-2.9.5 1.5 3.7 2.4 7.7 2.8 11.7 0 .1-.1.2-.2.2z"/></g></g><g><g><path d="m15.7 36.2c-.2-.2.1-.6.3-.4 1.3 1.2 3.3 1.6 4.9.9.3-.1.5.3.2.5-1.8.7-4 .3-5.4-1z"/></g></g><g><g><path d="m12.7 25.6c-2.1-2.6-2.4-6.4-.8-9.2 1.6-2.9 5.1-4.5 8.3-4 .1 0 .2.1.2.3 0 .1-.1.2-.3.2-3-.5-6.3 1.1-7.8 3.8s-1.2 6.3.7 8.7c.3.2 0 .5-.3.2z"/></g></g><g><g><path d="m38.8 33c-.3 0-.3-.5 0-.5 1.1-.1 2.1-1 2.2-2.2 0-.3.5-.3.5 0-.1 1.5-1.3 2.6-2.7 2.7z"/></g></g><g><g><path d="m64.6 56.1c-.5 0-.9-.2-1.4-.3-6.8-2.6-12.3-8.3-20.8-16.1-1.6-1.5-3.3-3-3.7-5.4-.1-.3.4-.4.5-.1.4 2.2 1.9 3.6 3.6 5.1 8.5 7.8 14 13.5 20.7 16 .6.2 1.2.4 1.7.2.4-.2.7-.8.4-1.1-.1-.1-.1-.2 0-.4.1-.1.2-.1.4 0 .3.2.4.6.3.9-.3.7-.8 1.2-1.7 1.2z"/></g></g><g><g><path d="m30.8 29.8c-1.2-2.7 1-5.8-2.2-9.1-.2-.2.1-.6.4-.3 3.3 3.5 1.1 6.7 2.3 9.2.6 1.2 1.9 2 3.1 1.9.3 0 .3.5 0 .5-.1 0-3-.8-3.6-2.2z"/></g></g></g></svg>